<svg xmlns="http://www.w3.org/2000/svg" width="64.025" height="56" viewBox="0 0 64.025 56">
  <g id="_24x7-support" data-name="24x7-support" transform="translate(-5982.938 -2857)">
    <g id="Group_2986" data-name="Group 2986" transform="translate(5993.992 2857)">
      <path id="Path_10731" data-name="Path 10731" d="M4985.872-4906.832h-15.263a.879.879,0,0,1-.878-.878.879.879,0,0,1,.878-.878h14.384v-28.036a19.64,19.64,0,0,0-19.618-19.618,19.641,19.641,0,0,0-19.618,19.618v20.167a.878.878,0,0,1-.878.878.879.879,0,0,1-.878-.878v-20.167a21.234,21.234,0,0,1,6.261-15.114,21.233,21.233,0,0,1,15.114-6.261,21.234,21.234,0,0,1,15.115,6.261,21.234,21.234,0,0,1,6.26,15.114v28.915A.878.878,0,0,1,4985.872-4906.832Z" transform="translate(-4944 4958)" fill="#2c2c2c"/>
    </g>
    <g id="Group_2987" data-name="Group 2987" transform="translate(5982.938 2879.515)">
      <path id="Path_10732" data-name="Path 10732" d="M4804.932-4630.334A11.945,11.945,0,0,1,4793-4642.266a11.928,11.928,0,0,1,2.951-7.857.879.879,0,0,1,1.24-.082.879.879,0,0,1,.083,1.24,10.165,10.165,0,0,0-2.517,6.7,10.186,10.186,0,0,0,10.175,10.175.879.879,0,0,1,.879.878A.879.879,0,0,1,4804.932-4630.334Z" transform="translate(-4793 4650.422)" fill="#2c2c2c"/>
    </g>
    <g id="Group_2988" data-name="Group 2988" transform="translate(6035.058 2876.587)">
      <path id="Path_10733" data-name="Path 10733" d="M5512.668-4669.715a.875.875,0,0,1-.631-.267.879.879,0,0,1,.02-1.243,10.164,10.164,0,0,0,3.057-6.47,10.109,10.109,0,0,0-2.381-7.415,10.106,10.106,0,0,0-6.927-3.56.878.878,0,0,1-.8-.947.879.879,0,0,1,.947-.8,11.853,11.853,0,0,1,8.123,4.174,11.855,11.855,0,0,1,2.792,8.7,11.924,11.924,0,0,1-3.585,7.588A.875.875,0,0,1,5512.668-4669.715Z" transform="translate(-5505 4690.423)" fill="#2c2c2c"/>
    </g>
    <g id="Group_2989" data-name="Group 2989" transform="translate(6009.73 2901.653)">
      <path id="Path_10734" data-name="Path 10734" d="M5164.673-4336.653a5.68,5.68,0,0,1-5.673-5.674,5.679,5.679,0,0,1,5.673-5.673,5.68,5.68,0,0,1,5.674,5.673A5.68,5.68,0,0,1,5164.673-4336.653Zm0-9.59a3.921,3.921,0,0,0-3.916,3.916,3.921,3.921,0,0,0,3.916,3.917,3.922,3.922,0,0,0,3.917-3.917A3.921,3.921,0,0,0,5164.673-4346.243Z" transform="translate(-5159 4348)" fill="#2c2c2c"/>
    </g>
    <g id="Group_2990" data-name="Group 2990" transform="translate(5998.018 2872.574)">
      <path id="Path_10735" data-name="Path 10735" d="M5033.405-4716.729l-12.018-6.907H4999v-21.608h34.405Zm-32.648-8.664h21.1l9.792,5.627v-23.722h-30.892Z" transform="translate(-4999 4745.243)" fill="#2c2c2c"/>
    </g>
    <g id="Group_2991" data-name="Group 2991" transform="translate(6001.388 2875.958)">
      <path id="Path_10736" data-name="Path 10736" d="M5051.168-4688.7h-4.736a.879.879,0,0,1-.822-.569.878.878,0,0,1,.243-.97,21.165,21.165,0,0,0,2.443-2.622c1.232-1.606,1.688-2.9,1.253-3.556a1.676,1.676,0,0,0-1.111-.812,3.022,3.022,0,0,0-1.984.609.878.878,0,0,1-1.23-.162.881.881,0,0,1,.163-1.233,4.737,4.737,0,0,1,3.332-.949,3.421,3.421,0,0,1,2.292,1.573c.92,1.38.471,3.271-1.335,5.619-.367.478-.752.924-1.111,1.315h2.605a.878.878,0,0,1,.878.878A.878.878,0,0,1,5051.168-4688.7Z" transform="translate(-5045.041 4699.01)" fill="#2c2c2c"/>
    </g>
    <g id="Group_2992" data-name="Group 2992" transform="translate(6008.366 2875.813)">
      <path id="Path_10737" data-name="Path 10737" d="M5145.7-4690.185a.879.879,0,0,1-.879-.878v-2.349l-3.564.048a.88.88,0,0,1-.8-.482.876.876,0,0,1,.084-.926l4.455-5.881a.878.878,0,0,1,.98-.3.879.879,0,0,1,.6.833v4.93l1.289-.017h.012a.878.878,0,0,1,.878.867.879.879,0,0,1-.867.89l-1.312.018v2.372A.878.878,0,0,1,5145.7-4690.185Zm-.879-7.324-1.791,2.364,1.791-.024Z" transform="translate(-5140.369 4701.001)" fill="#2c2c2c"/>
    </g>
    <g id="Group_2993" data-name="Group 2993" transform="translate(6022.467 2883.206)">
      <path id="Path_10738" data-name="Path 10738" d="M5334.222-4591.752a.871.871,0,0,1-.445-.122.879.879,0,0,1-.311-1.2l3.047-5.166h-2.635a.878.878,0,0,1-.878-.878.878.878,0,0,1,.878-.878h4.173a.88.88,0,0,1,.763.442.879.879,0,0,1-.006.882l-3.829,6.49A.878.878,0,0,1,5334.222-4591.752Z" transform="translate(-5333 4600)" fill="#2c2c2c"/>
    </g>
    <g id="Group_2994" data-name="Group 2994" transform="translate(6022.811 2886.249)">
      <path id="Path_10739" data-name="Path 10739" d="M5341.966-4556.677h-3.385a.879.879,0,0,1-.879-.878.879.879,0,0,1,.879-.878h3.385a.879.879,0,0,1,.879.878A.879.879,0,0,1,5341.966-4556.677Z" transform="translate(-5337.702 4558.434)" fill="#2c2c2c"/>
    </g>
    <g id="Group_2995" data-name="Group 2995" transform="translate(6015.635 2876.228)">
      <path id="Path_10740" data-name="Path 10740" d="M5240.548-4681.076a.877.877,0,0,1-.375-.084.878.878,0,0,1-.419-1.169l5.9-12.491a.877.877,0,0,1,1.169-.419.878.878,0,0,1,.419,1.169l-5.9,12.492A.88.88,0,0,1,5240.548-4681.076Z" transform="translate(-5239.67 4695.325)" fill="#2c2c2c"/>
    </g>
  </g>
</svg>
