<svg id="Group_3555" data-name="Group 3555" xmlns="http://www.w3.org/2000/svg" width="16.624" height="16" viewBox="0 0 16.624 16">
  <g id="calculator" transform="translate(0 0)">
    <path id="Path_5761" data-name="Path 5761" d="M71.8,0H62.408A1.409,1.409,0,0,0,61,1.406V14.594A1.409,1.409,0,0,0,62.408,16H71.8A1.409,1.409,0,0,0,73.2,14.594V1.406A1.409,1.409,0,0,0,71.8,0ZM61.939,6h4.694v4.062H61.939Zm5.633,0h4.694v4.062H67.572ZM62.408.937H71.8a.47.47,0,0,1,.469.469V5.062H61.939V1.406A.47.47,0,0,1,62.408.937Zm-.469,13.656V11h4.694v4.062H62.408A.47.47,0,0,1,61.939,14.594Zm10.327,0a.47.47,0,0,1-.469.469H67.572V11h4.694Z" transform="translate(-61 0)" fill="#f16700"/>
    <path id="Path_5762" data-name="Path 5762" d="M303.335,242h-1.868a.467.467,0,0,0,0,.934h1.868a.467.467,0,0,0,0-.934Z" transform="translate(-293.478 -234.436)" fill="#f16700"/>
    <path id="Path_5763" data-name="Path 5763" d="M301.467,432.934h1.868a.467.467,0,0,0,0-.934h-1.868a.467.467,0,0,0,0,.934Z" transform="translate(-293.478 -418.491)" fill="#f16700"/>
    <path id="Path_5764" data-name="Path 5764" d="M301.467,372.934h1.868a.467.467,0,1,0,0-.934h-1.868a.467.467,0,1,0,0,.934Z" transform="translate(-293.478 -360.372)" fill="#f16700"/>
    <path id="Path_5765" data-name="Path 5765" d="M123.335,212.934h-.467v-.467a.467.467,0,0,0-.934,0v.467h-.467a.467.467,0,1,0,0,.934h.467v.467a.467.467,0,1,0,.934,0v-.467h.467a.467.467,0,0,0,0-.934Z" transform="translate(-119.12 -205.37)" fill="#f16700"/>
    <path id="Path_5766" data-name="Path 5766" d="M131.905,380.925a.467.467,0,0,0-.66,0l-.33.33-.33-.33a.467.467,0,1,0-.66.66l.33.33-.33.33a.467.467,0,0,0,.66.66l.33-.33.33.33a.467.467,0,0,0,.66-.66l-.33-.33.33-.33A.467.467,0,0,0,131.905,380.925Z" transform="translate(-127.632 -368.873)" fill="#f16700"/>
  </g>
  <g id="Group_2876" data-name="Group 2876" transform="translate(11.519 10.896)">
    <path id="Path_5778" data-name="Path 5778" d="M2.552,0A2.552,2.552,0,1,0,5.1,2.552,2.555,2.555,0,0,0,2.552,0Zm0,4.537A1.985,1.985,0,1,1,4.537,2.552,1.987,1.987,0,0,1,2.552,4.537Z" fill="#f16700"/>
    <path id="Path_5779" data-name="Path 5779" d="M96.55,56.322l-.1-.036v-.611a.261.261,0,0,1,.092.055.189.189,0,0,0,.284-.25.656.656,0,0,0-.376-.194v-.1a.189.189,0,1,0-.378,0v.118l-.035.01a.637.637,0,0,0-.437.5.566.566,0,0,0,.187.557,1.4,1.4,0,0,0,.285.167v.8a.573.573,0,0,1-.252-.108.189.189,0,0,0-.207.316.915.915,0,0,0,.459.172v.117a.189.189,0,1,0,.378,0V57.7a.769.769,0,0,0,.56-.613A.677.677,0,0,0,96.55,56.322Zm-.53-.247a.2.2,0,0,1-.049-.19.282.282,0,0,1,.1-.169v.4C96.054,56.1,96.036,56.088,96.021,56.076Zm.617.95a.391.391,0,0,1-.187.271v-.607A.293.293,0,0,1,96.637,57.025Z" transform="translate(-93.722 -53.96)" fill="#f16700"/>
  </g>
</svg>
