<svg xmlns="http://www.w3.org/2000/svg" xmlns:xlink="http://www.w3.org/1999/xlink" width="16" height="16" viewBox="0 0 16 16">
  <defs>
    <clipPath id="clip-path">
      <path id="path2943" d="M0-682.665H16v16H0Z" transform="translate(-17760 -13738.335)" fill="#f16700"/>
    </clipPath>
  </defs>
  <g id="Mask_Group_583" data-name="Mask Group 583" transform="translate(17760 14421)" clip-path="url(#clip-path)">
    <path id="Union_62" data-name="Union 62" d="M6.719.418q0,.24-.014.478H.851Q.837.659.837.419A.418.418,0,0,0,0,.418H0a8.472,8.472,0,0,0,2.5,6.03l.688.688L2.5,7.825A8.472,8.472,0,0,0,0,13.856a.418.418,0,0,0,.837,0q0-.24.014-.478H6.7q.014.238.015.478a.418.418,0,1,0,.837,0,8.472,8.472,0,0,0-2.5-6.03l-.689-.689.689-.689a8.472,8.472,0,0,0,2.5-6.03.418.418,0,1,0-.837,0ZM6.608,1.732a7.64,7.64,0,0,1-.228.956H1.175a7.639,7.639,0,0,1-.228-.956ZM6.068,3.524a7.608,7.608,0,0,1-.505.955H1.992a7.606,7.606,0,0,1-.505-.955ZM4.959,5.315q-.233.281-.494.542l-.688.688L3.09,5.857Q2.828,5.6,2.6,5.315Zm-1.87,3.1.688-.688.688.689q.261.261.493.541H2.6Q2.828,8.678,3.09,8.417ZM5.563,9.8a7.6,7.6,0,0,1,.505.955H1.487A7.6,7.6,0,0,1,1.992,9.8Zm.817,1.79a7.633,7.633,0,0,1,.228.956H.948a7.64,7.64,0,0,1,.228-.956Z" transform="translate(-17744.564 -14410.907) rotate(135)" fill="#f16700"/>
  </g>
</svg>
