<svg xmlns="http://www.w3.org/2000/svg" xmlns:xlink="http://www.w3.org/1999/xlink" width="16" height="16" viewBox="0 0 16 16">
  <defs>
    <clipPath id="clip-path">
      <path id="path264" d="M0-682.665H16v16H0Z" transform="translate(0 682.665)" fill="#f16700"/>
    </clipPath>
  </defs>
  <g id="g258" transform="translate(0 682.665)">
    <g id="g260" transform="translate(0 -682.665)">
      <g id="g262" transform="translate(0 0)" clip-path="url(#clip-path)">
        <g id="g268" transform="translate(0 3.766)">
          <path id="path270" d="M-662.2-20h15.063a.469.469,0,0,1,.469.469v8.516a2.311,2.311,0,0,1-2.309,2.309h-11.383a2.311,2.311,0,0,1-2.309-2.309v-8.516A.469.469,0,0,1-662.2-20Zm14.594.938h-14.125v8.047a1.373,1.373,0,0,0,1.371,1.371h11.383a1.373,1.373,0,0,0,1.371-1.371Z" transform="translate(662.665 20)" fill="#f16700"/>
        </g>
        <g id="g272" transform="translate(4.707 0.941)">
          <path id="path274" d="M-254.882-136.738h-5.648a.469.469,0,0,1-.469-.469v-1.4a1.9,1.9,0,0,1,1.893-1.893h2.8a1.9,1.9,0,0,1,1.893,1.893v1.4A.469.469,0,0,1-254.882-136.738Zm-5.18-.937h4.711v-.932a.956.956,0,0,0-.955-.955h-2.8a.956.956,0,0,0-.955.955Z" transform="translate(260.999 140.5)" fill="#f16700"/>
        </g>
        <g id="g276" transform="translate(0 3.766)">
          <path id="path278" d="M-13.532-13.531a.472.472,0,0,1-.072-.006c-3.706-.575-6.4-3.1-6.4-5.995A.469.469,0,0,1-19.531-20a.469.469,0,0,1,.469.469c0,2.434,2.356,4.565,5.6,5.068a.469.469,0,0,1,.391.535A.469.469,0,0,1-13.532-13.531Z" transform="translate(20 20)" fill="#f16700"/>
        </g>
        <g id="g280" transform="translate(9.063 3.766)">
          <path id="path282" d="M-19.535-249.544a.469.469,0,0,1-.463-.4.469.469,0,0,1,.391-.535c3.246-.5,5.6-2.635,5.6-5.068a.469.469,0,0,1,.469-.469.469.469,0,0,1,.469.469c0,2.9-2.69,5.42-6.4,5.995A.473.473,0,0,1-19.535-249.544Z" transform="translate(20.003 256.013)" fill="#f16700"/>
        </g>
        <g id="g284" transform="translate(5.999 7.882)">
          <path id="path286" d="M-150.278-20h3.064a.469.469,0,0,1,.469.469V-18a2,2,0,0,1-2,2,2,2,0,0,1-2-2v-1.532A.469.469,0,0,1-150.278-20Zm2.6.938h-2.127V-18a1.065,1.065,0,0,0,1.063,1.063A1.065,1.065,0,0,0-147.682-18Z" transform="translate(150.746 20)" fill="#f16700"/>
        </g>
      </g>
    </g>
  </g>
</svg>
