<svg id="plan" xmlns="http://www.w3.org/2000/svg" width="16" height="16" viewBox="0 0 16 16">
  <path id="Path_24090" data-name="Path 24090" d="M1.724,0H2.979a.469.469,0,0,1,.469.469V13.021a.469.469,0,0,1-.469.469H1.723a.786.786,0,0,0-.786.786.469.469,0,0,1-.938,0V1.724A1.724,1.724,0,0,1,1.724,0ZM2.51.938H1.724a.786.786,0,0,0-.786.786V12.741a1.715,1.715,0,0,1,.786-.189H2.51Z" fill="#f16700"/>
  <path id="Path_24091" data-name="Path 24091" d="M15.531,93.823H1.724a1.724,1.724,0,1,1,0-3.448H2.51V80.8a.469.469,0,0,1,.469-.469H15.531A.469.469,0,0,1,16,80.8V93.354A.469.469,0,0,1,15.531,93.823ZM1.724,91.312a.793.793,0,0,0-.556.23.787.787,0,0,0,.556,1.343H15.063V81.271H3.448v9.573a.469.469,0,0,1-.469.469Z" transform="translate(0 -77.823)" fill="#f16700"/>
  <path id="Line_253" data-name="Line 253" d="M-14.531-9.795A.469.469,0,0,1-15-10.264v-4.268A.469.469,0,0,1-14.531-15a.469.469,0,0,1,.469.469v4.268A.469.469,0,0,1-14.531-9.795Z" transform="translate(27.301 19.895)" fill="#f16700"/>
  <path id="Line_254" data-name="Line 254" d="M-10.264-14.062h-4.268A.469.469,0,0,1-15-14.531.469.469,0,0,1-14.531-15h4.268a.469.469,0,0,1,.469.469A.469.469,0,0,1-10.264-14.062Z" transform="translate(20.146 27.301)" fill="#f16700"/>
  <path id="Path_24092" data-name="Path 24092" d="M371.508,146.291a.467.467,0,0,1-.331-.137l-.422-.422-.422.422a.469.469,0,1,1-.663-.663l.753-.753a.469.469,0,0,1,.663,0l.753.753a.469.469,0,0,1-.331.8Z" transform="translate(-357.985 -140.081)" fill="#f16700"/>
  <path id="Path_24093" data-name="Path 24093" d="M289.669,371.977a.469.469,0,0,1-.331-.8l.422-.422-.422-.422a.469.469,0,1,1,.663-.663l.753.753a.469.469,0,0,1,0,.663l-.753.753A.467.467,0,0,1,289.669,371.977Z" transform="translate(-280.163 -357.985)" fill="#f16700"/>
  <path id="Path_24094" data-name="Path 24094" d="M370.755,282.858a.467.467,0,0,1-.331-.137l-.753-.753a.469.469,0,1,1,.663-.663l.422.422.422-.422a.469.469,0,1,1,.663.663l-.753.753A.467.467,0,0,1,370.755,282.858Z" transform="translate(-357.985 -272.381)" fill="#f16700"/>
  <path id="Path_24095" data-name="Path 24095" d="M153.855,371.977a.467.467,0,0,1-.331-.137l-.753-.753a.469.469,0,0,1,0-.663l.753-.753a.469.469,0,1,1,.663.663l-.422.422.422.422a.469.469,0,0,1-.331.8Z" transform="translate(-147.863 -357.985)" fill="#f16700"/>
  <path id="Path_24096" data-name="Path 24096" d="M155.612,144.6a.467.467,0,0,1,.331.137l2.51,2.51a.469.469,0,0,1,.137.331v2.51a.469.469,0,0,1-.469.469H153.1a.469.469,0,0,1-.469-.469v-2.51a.469.469,0,0,1,.137-.331l2.51-2.51A.467.467,0,0,1,155.612,144.6Zm2.042,3.173-2.042-2.042-2.042,2.042v1.848h4.083Z" transform="translate(-147.863 -140.081)" fill="#f16700"/>
</svg>
