<svg xmlns="http://www.w3.org/2000/svg" width="56" height="56" viewBox="0 0 56 56">
  <g id="content-creator" transform="translate(-7 -7)">
    <path id="Path_30096" data-name="Path 30096" d="M96.761,264.067h27.787a4.515,4.515,0,0,1,4.465,5.156l-3.022,21.189a.9.9,0,0,1-.89.775H96.208a.9.9,0,0,1-.89-.773L92.3,269.223a4.515,4.515,0,0,1,4.465-5.156Zm27.591,25.319c.123-1.085.4-3.055.93-6.738l1.951-13.679a2.715,2.715,0,0,0-2.685-3.1H96.761a2.715,2.715,0,0,0-2.685,3.1l2.912,20.418Z" transform="translate(-75.654 -228.187)"/>
    <path id="Ellipse_704" data-name="Ellipse 704" d="M-3.482-8A4.523,4.523,0,0,1,1.035-3.482,4.523,4.523,0,0,1-3.482,1.035,4.523,4.523,0,0,1-8-3.482,4.523,4.523,0,0,1-3.482-8Zm0,7.234A2.72,2.72,0,0,0-.766-3.482,2.72,2.72,0,0,0-3.482-6.2,2.72,2.72,0,0,0-6.2-3.482,2.72,2.72,0,0,0-3.482-.766Z" transform="translate(38.482 52.933)"/>
    <path id="Path_30097" data-name="Path 30097" d="M157.926,95.367a.9.9,0,0,1,.637.264,6.771,6.771,0,0,0,9.577,0,.9.9,0,0,1,1.273,0l5.426,5.425a.9.9,0,0,1,.264.637v2.713a11.752,11.752,0,1,1-23.5,0v-2.713a.9.9,0,0,1,.264-.637l5.426-5.426A.9.9,0,0,1,157.926,95.367Zm15.376,6.7-4.558-4.558a8.577,8.577,0,0,1-10.786,0l-4.558,4.558v2.34a9.951,9.951,0,1,0,19.9,0Z" transform="translate(-128.352 -78.436)"/>
    <path id="Path_30098" data-name="Path 30098" d="M18.074,334.358a.9.9,0,0,1,.891.773l2.487,17.407a.9.9,0,0,1-.891,1.028H12.324A5.325,5.325,0,0,1,7,348.242a7.632,7.632,0,0,1,2.25-5.433l8.187-8.187A.9.9,0,0,1,18.074,334.358Zm1.448,17.407-2.085-14.6-6.913,6.914A5.841,5.841,0,0,0,8.8,348.24a3.524,3.524,0,0,0,3.523,3.525Z" transform="translate(0 -290.566)"/>
    <path id="Path_30099" data-name="Path 30099" d="M379.92,334.358a.9.9,0,0,1,.637.264l8.219,8.219a7.522,7.522,0,0,1,2.217,5.353,5.378,5.378,0,0,1-5.371,5.372h-8.189a.9.9,0,0,1-.891-1.028l2.487-17.407a.9.9,0,0,1,.891-.773Zm5.7,17.407a3.574,3.574,0,0,0,3.57-3.57,5.733,5.733,0,0,0-1.69-4.08l-6.946-6.946-2.085,14.6Z" transform="translate(-327.994 -290.566)"/>
    <path id="Path_30100" data-name="Path 30100" d="M144.795,24.173a.9.9,0,0,1-.9-.9c0-6.972-.931-10.183-.94-10.214a.9.9,0,0,1,.226-.9,8.118,8.118,0,0,1,6.308-2.4,8.245,8.245,0,0,1,12.316,0,8.118,8.118,0,0,1,6.308,2.4.9.9,0,0,1,.226.9c-.009.032-.94,3.242-.94,10.214a.9.9,0,1,1-1.8,0,47.2,47.2,0,0,1,.874-10.175,6.236,6.236,0,0,0-4.914-1.49.9.9,0,0,1-.883-.366,6.4,6.4,0,0,0-10.056,0,.9.9,0,0,1-.883.366,6.235,6.235,0,0,0-4.914,1.49,47.2,47.2,0,0,1,.874,10.175A.9.9,0,0,1,144.795,24.173Z" transform="translate(-120.646)"/>
  </g>
</svg>
