<svg xmlns="http://www.w3.org/2000/svg" width="58.257" height="56" viewBox="0 0 58.257 56">
  <path id="Union_68" data-name="Union 68" d="M13.738,55.915a5.856,5.856,0,0,1-4.764-6.773L11.13,36.57a.783.783,0,0,0-.225-.694L1.771,26.971a5.862,5.862,0,0,1,3.248-10l12.622-1.834a.783.783,0,0,0,.59-.429l5.645-11.44A5.891,5.891,0,0,1,26.539.606,5.8,5.8,0,0,1,29.127,0h0a5.827,5.827,0,0,1,5.259,3.27l5.645,11.44a.784.784,0,0,0,.59.429l12.622,1.834a5.862,5.862,0,0,1,3.248,10l-9.133,8.905a.784.784,0,0,0-.226.694l2.155,12.575a5.858,5.858,0,0,1-8.5,6.179L29.5,49.387a.8.8,0,0,0-.729,0l-11.29,5.937A5.9,5.9,0,0,1,14.729,56,5.782,5.782,0,0,1,13.738,55.915ZM27.32,2.19a4.116,4.116,0,0,0-1.861,1.861l-5.645,11.44a2.549,2.549,0,0,1-1.92,1.4L5.273,18.72a4.095,4.095,0,0,0-3.464,4.641A4.118,4.118,0,0,0,3,25.706l9.133,8.905a2.548,2.548,0,0,1,.733,2.258L10.714,49.443a4.089,4.089,0,0,0,5.939,4.319l11.291-5.938a2.548,2.548,0,0,1,2.373,0L41.607,53.76a4.045,4.045,0,0,0,1.9.472,4.1,4.1,0,0,0,4.039-4.789L45.392,36.869a2.549,2.549,0,0,1,.733-2.257l9.133-8.905a4.1,4.1,0,0,0,.073-5.792,4.117,4.117,0,0,0-2.343-1.194L40.367,16.886a2.549,2.549,0,0,1-1.92-1.4L32.8,4.051A4.09,4.09,0,0,0,27.32,2.19ZM22.036,35.442l-1.424-1.087a.883.883,0,0,1,1.071-1.4l1.424,1.087a9.947,9.947,0,0,0,12.047,0l1.424-1.087a.883.883,0,0,1,1.071,1.4l-1.424,1.087a11.716,11.716,0,0,1-14.19,0ZM31.383,26.6a3.193,3.193,0,0,1,3.188-3.191h0A3.19,3.19,0,1,1,31.383,26.6ZM20.5,26.6a3.193,3.193,0,0,1,3.188-3.191h0A3.19,3.19,0,1,1,20.5,26.6Z" transform="translate(-0.001)"/>
</svg>
