<svg id="finance" xmlns="http://www.w3.org/2000/svg" width="16" height="16" viewBox="0 0 16 16">
  <g id="Group_2868" data-name="Group 2868">
    <path id="Path_5784" data-name="Path 5784" d="M14.594,29H1.406A1.506,1.506,0,0,0,0,30.586v9.445a1.506,1.506,0,0,0,1.406,1.586H6.031v2.326H3A.532.532,0,0,0,3,45H13a.532.532,0,0,0,0-1.057H9.969V41.617h4.625A1.506,1.506,0,0,0,16,40.031V30.586A1.506,1.506,0,0,0,14.594,29ZM9.031,43.943H6.969V41.617H9.031Zm6.031-3.912a.5.5,0,0,1-.469.529H1.406a.5.5,0,0,1-.469-.529V30.586a.5.5,0,0,1,.469-.529H14.594a.5.5,0,0,1,.469.529Z" transform="translate(0 -29)" fill="#f16700"/>
  </g>
  <g id="Group_2869" data-name="Group 2869" transform="translate(5.9 2.253)">
    <path id="Path_5785" data-name="Path 5785" d="M216.285,93h-2.253a.528.528,0,0,0-.528.528v.6H211.78a.528.528,0,0,0-.528.528v.6h-1.725a.528.528,0,0,0-.528.528v4.787a.528.528,0,0,0,.528.528h6.758a.528.528,0,0,0,.528-.528V93.528A.528.528,0,0,0,216.285,93Zm-6.23,3.308h1.2v3.731h-1.2Zm2.253-1.126h1.2v4.857h-1.2Zm3.449,4.857h-1.2V94.056h1.2Z" transform="translate(-209 -93)" fill="#f16700"/>
  </g>
  <g id="Group_2870" data-name="Group 2870" transform="translate(2.429 4.51)">
    <path id="Path_5786" data-name="Path 5786" d="M71.1,159.265a3.763,3.763,0,0,1-.907-.418.206.206,0,0,1-.02-.163.294.294,0,0,1,.188-.232.638.638,0,0,1,.563.078.528.528,0,0,0,.714-.778,1.719,1.719,0,0,0-.594-.321v-.043a.528.528,0,1,0-1.056,0v.076a1.322,1.322,0,0,0-.445,2.213,4.407,4.407,0,0,0,1.206.582.352.352,0,0,1,.265.421.5.5,0,0,1-.5.426.936.936,0,0,1-.692-.179.528.528,0,1,0-.578.883,1.911,1.911,0,0,0,.746.317v.051a.528.528,0,0,0,1.056,0v-.111A1.483,1.483,0,0,0,71.1,159.265Z" transform="translate(-69.006 -156.86)" fill="#f16700"/>
  </g>
</svg>
