<svg id="engineering" xmlns="http://www.w3.org/2000/svg" width="16" height="16" viewBox="0 0 16 16">
  <path id="Path_6254" data-name="Path 6254" d="M32.149,6.125h-.615A.5.5,0,0,0,31,6.594V8a.482.482,0,0,0,.387.451c.037.009.28.07.68.156v2.206a.5.5,0,0,0,.533.469h.756a4.777,4.777,0,0,0,.525,1.1l-.538.473a.43.43,0,0,0,0,.663l1.509,1.326a.587.587,0,0,0,.754,0l.538-.473a6.261,6.261,0,0,0,1.256.462v.7a.5.5,0,0,0,.533.469h2.133a.5.5,0,0,0,.533-.469v-.7a6.26,6.26,0,0,0,1.256-.461l.538.473a.587.587,0,0,0,.754,0l1.509-1.326a.43.43,0,0,0,0-.663l-.538-.473a4.777,4.777,0,0,0,.525-1.1H45.4a.5.5,0,0,0,.533-.469V8.607c.4-.086.642-.147.68-.156A.482.482,0,0,0,47,8V6.594a.5.5,0,0,0-.533-.469h-.615A6.248,6.248,0,0,0,42.22,1.634l.222-.436a.417.417,0,0,0,.01-.361.5.5,0,0,0-.285-.26,8.981,8.981,0,0,0-6.334,0,.5.5,0,0,0-.285.26.417.417,0,0,0,.01.361l.222.436a6.248,6.248,0,0,0-3.631,4.491Zm12.718,4.219h-.641a.521.521,0,0,0-.523.375A3.92,3.92,0,0,1,43,12.2a.427.427,0,0,0,.067.59l.458.4-.754.663-.458-.4a.589.589,0,0,0-.672-.059,5.126,5.126,0,0,1-1.682.618.488.488,0,0,0-.427.459v.595H38.467v-.595a.488.488,0,0,0-.427-.459,5.126,5.126,0,0,1-1.682-.618.589.589,0,0,0-.672.059l-.458.4-.754-.663.458-.4A.427.427,0,0,0,35,12.2a3.92,3.92,0,0,1-.7-1.478.521.521,0,0,0-.523-.375h-.641V8.819c.625.115,1.384.239,2.222.344a2.907,2.907,0,0,0-.088.712A3.533,3.533,0,0,0,39,13.156a3.533,3.533,0,0,0,3.733-3.281,2.907,2.907,0,0,0-.088-.712c.838-.1,1.6-.228,2.222-.344Zm-8.533-.469a2.077,2.077,0,0,1,.087-.6c.827.077,1.7.127,2.58.127s1.753-.05,2.58-.127a2.076,2.076,0,0,1,.087.6,2.689,2.689,0,0,1-5.333,0Zm9.6-2.812v.577A34.466,34.466,0,0,1,39,8.469a34.466,34.466,0,0,1-6.933-.83V7.062Zm-9.717-4.57,1.23,2.417a.565.565,0,0,0,.7.237.448.448,0,0,0,.269-.619l-1.66-3.262a7.808,7.808,0,0,1,4.479,0L39.58,4.527a.448.448,0,0,0,.269.619.565.565,0,0,0,.7-.237l1.23-2.417a5.357,5.357,0,0,1,2.986,3.632H33.231a5.357,5.357,0,0,1,2.986-3.632Z" transform="translate(-31 0)" fill="#f16700"/>
</svg>
