<svg id="Group_3344" data-name="Group 3344" xmlns="http://www.w3.org/2000/svg" width="12.522" height="16" viewBox="0 0 12.522 16">
  <g id="dictionary">
    <path id="Path_6246" data-name="Path 6246" d="M-48.436,24.5H-58.82a1.7,1.7,0,0,0-1.68,1.719V38.781A1.7,1.7,0,0,0-58.82,40.5h10.384a.464.464,0,0,0,.458-.469V24.969A.464.464,0,0,0-48.436,24.5ZM-59.584,38.781V26.219a.773.773,0,0,1,.764-.781h.153V39.563h-.153A.773.773,0,0,1-59.584,38.781Zm10.689.781h-8.857V25.438h8.857Z" transform="translate(60.5 -24.5)" fill="#f16700"/>
  </g>
  <path id="Path_6297" data-name="Path 6297" d="M130.66,198.982h-1.5v-.731h.93a.472.472,0,1,0,0-.944h-.93V196.5h1.467a.472.472,0,0,0,0-.944h-2.411v4.37h2.441a.472.472,0,0,0,0-.944Z" transform="translate(-122.506 -190.224)" fill="#f16700"/>
</svg>
