<svg xmlns="http://www.w3.org/2000/svg" width="63.779" height="56" viewBox="0 0 63.779 56">
  <path id="Union_64" data-name="Union 64" d="M8.376,56A8.385,8.385,0,0,1,0,47.624V12.443a.775.775,0,0,1,.775-.775H19.447V6.658A6.665,6.665,0,0,1,26.1,0h11.57a6.665,6.665,0,0,1,6.658,6.658v5.01H63a.775.775,0,0,1,.775.775h0V47.624A8.385,8.385,0,0,1,55.4,56ZM1.549,47.624a6.834,6.834,0,0,0,6.827,6.827H55.4a6.834,6.834,0,0,0,6.827-6.827V19.845c-3.4,7.926-12.124,14.2-23.237,16.11a7.1,7.1,0,0,1-14.205,0C13.674,34.046,4.953,27.771,1.549,19.845ZM26.334,35.779a5.555,5.555,0,0,0,11.111,0v-.471q0-.013,0-.025V30.223H26.334v5.059c0,.008,0,.017,0,.025Zm-1.549-1.4V29.449a.775.775,0,0,1,.775-.775h12.66a.775.775,0,0,1,.775.775v4.933C52.176,32.024,61.743,23.3,62.211,13.217H1.567C2.035,23.3,11.6,32.024,24.785,34.381Zm18-22.713V6.658a5.114,5.114,0,0,0-5.108-5.108H26.1A5.114,5.114,0,0,0,21,6.658v5.01Z"/>
</svg>
