<svg id="money" xmlns="http://www.w3.org/2000/svg" width="16" height="16" viewBox="0 0 16 16">
  <g id="Group_2871" data-name="Group 2871">
    <path id="Path_5787" data-name="Path 5787" d="M14.593.519H1.406A1.409,1.409,0,0,0,0,1.928V9.6A1.409,1.409,0,0,0,1.406,11.01H9.031a2.222,2.222,0,0,0,2.509,2.235A2.218,2.218,0,1,0,15.125,11.3a2.22,2.22,0,0,0,.854-1.472c.028-.163.019.509.019-7.9A1.409,1.409,0,0,0,14.593.519ZM12.536,9.23a1.281,1.281,0,0,1,2.516.463V9.7h0a1.283,1.283,0,0,1-1.6,1.08,2.227,2.227,0,0,0-.917-1.55Zm-.869-.373a2.229,2.229,0,0,0-2.414,1.213H3.937a3.48,3.48,0,0,0-3-2.979V4.437a3.48,3.48,0,0,0,3-2.979h8.125a3.48,3.48,0,0,0,3,2.979V7.725A2.216,2.216,0,0,0,11.667,8.857Zm3.394-6.929V3.487a2.54,2.54,0,0,1-2.049-2.028h1.581A.47.47,0,0,1,15.061,1.928ZM1.406,1.459H2.987A2.54,2.54,0,0,1,.937,3.487V1.928A.47.47,0,0,1,1.406,1.459ZM.937,9.6V8.043a2.54,2.54,0,0,1,2.049,2.028H1.406A.47.47,0,0,1,.937,9.6Zm9.031,1.441a1.281,1.281,0,1,1,2.553.154,2.234,2.234,0,0,0-.844,1.057,1.283,1.283,0,0,1-1.709-1.21Zm3.781,3.288a1.284,1.284,0,1,1,1.281-1.284A1.284,1.284,0,0,1,13.749,14.33Z" transform="translate(0 -0.519)" fill="#f16700"/>
  </g>
  <g id="Group_2872" data-name="Group 2872" transform="translate(10.531 4.791)">
    <path id="Path_5788" data-name="Path 5788" d="M337.736,153.579a.469.469,0,1,0,.1.687A.469.469,0,0,0,337.736,153.579Z" transform="translate(-337.007 -153.499)" fill="#f16700"/>
  </g>
  <g id="Group_2873" data-name="Group 2873" transform="translate(4.531 4.792)">
    <path id="Path_5789" data-name="Path 5789" d="M145.941,153.9a.469.469,0,1,0-.323.54A.469.469,0,0,0,145.941,153.9Z" transform="translate(-145.013 -153.527)" fill="#f16700"/>
  </g>
  <g id="Group_2874" data-name="Group 2874" transform="translate(1.281 11.564)">
    <path id="Path_5790" data-name="Path 5790" d="M43.218,369.519a2.218,2.218,0,1,0,2.218,2.218A2.221,2.221,0,0,0,43.218,369.519Zm0,3.5a1.281,1.281,0,1,1,1.281-1.281A1.282,1.282,0,0,1,43.218,373.018Z" transform="translate(-41 -369.519)" fill="#f16700"/>
  </g>
  <g id="Group_2875" data-name="Group 2875" transform="translate(6.657 2.831)">
    <path id="Path_5791" data-name="Path 5791" d="M214.888,92.963a3.341,3.341,0,0,1-.805-.371.183.183,0,0,1-.018-.144.261.261,0,0,1,.167-.206.566.566,0,0,1,.5.069.468.468,0,0,0,.634-.69,1.525,1.525,0,0,0-.528-.285V91.3a.469.469,0,1,0-.937,0v.068a1.174,1.174,0,0,0-.4,1.965,3.912,3.912,0,0,0,1.071.517.313.313,0,0,1,.235.374.445.445,0,0,1-.445.378.831.831,0,0,1-.615-.159.469.469,0,1,0-.513.784,1.7,1.7,0,0,0,.662.282v.045a.469.469,0,1,0,.937,0v-.1A1.316,1.316,0,0,0,214.888,92.963Z" transform="translate(-213.025 -90.829)" fill="#f16700"/>
  </g>
</svg>
