<svg id="gavel" xmlns="http://www.w3.org/2000/svg" width="15.999" height="16" viewBox="0 0 15.999 16">
  <path id="Path_5797" data-name="Path 5797" d="M240.99,422.224v1.9a.474.474,0,0,0,.474.474h7.617a.474.474,0,0,0,.474-.474v-1.9a.474.474,0,0,0-.474-.474h-7.617A.474.474,0,0,0,240.99,422.224Zm.948.474h6.669v.956h-6.669Z" transform="translate(-233.556 -408.602)" fill="#f16700"/>
  <path id="Path_5798" data-name="Path 5798" d="M.422,14.1a1.41,1.41,0,0,0,1.992,0L8.067,8.444l.668.668L8.4,9.446a.468.468,0,0,0,0,.662l1.33,1.33a.468.468,0,0,0,.662,0l3.989-3.989a.468.468,0,0,0,0-.662l-1.33-1.33a.468.468,0,0,0-.662,0l-.334.334L8.73,2.463l.334-.334a.468.468,0,0,0,0-.662L7.734.137a.468.468,0,0,0-.662,0L3.082,4.126a.468.468,0,0,0,0,.662l1.33,1.33a.468.468,0,0,0,.662,0l.334-.334.668.668L.422,12.105a1.41,1.41,0,0,0,0,1.992ZM8.07,1.8,4.743,5.125l-.668-.668L7.4,1.13ZM9.394,9.777l3.327-3.327.668.668-3.327,3.327Zm0-1.327L6.07,5.122l2-2,3.327,3.327ZM1.085,12.767,6.738,7.114l.668.668L1.752,13.435a.472.472,0,0,1-.668-.668Z" transform="translate(-0.01 0)" fill="#f16700"/>
</svg>
