<svg xmlns="http://www.w3.org/2000/svg" width="76.379" height="76.378" viewBox="0 0 76.379 76.378">
  <g id="Group_9163" data-name="Group 9163" transform="translate(15800.889 -2790)">
    <path id="Path_30077" data-name="Path 30077" d="M-15735.629,2850.485l5.011,9.654,5.085-9.654v-42.307h-10.1Z" fill="#feefce"/>
    <path id="Path_30077-2" data-name="Path 30077" d="M32.341,14H69.556a.974.974,0,0,1,.974.974V89.4a.974.974,0,0,1-.974.974H14.974A.974.974,0,0,1,14,89.4V32.341a.974.974,0,0,1,.285-.689L31.652,14.285A.974.974,0,0,1,32.341,14Zm36.24,1.949H32.745l-16.8,16.8V88.429H68.582Z" transform="translate(-15814.889 2776)"/>
    <path id="Path_30078" data-name="Path 30078" d="M432.707,190.733h9.924a.974.974,0,0,1,.974.974V223.96a.974.974,0,0,1-.1.436l-4.962,9.924a.975.975,0,0,1-1.743,0l-4.962-9.924a.975.975,0,0,1-.1-.436V191.707A.974.974,0,0,1,432.707,190.733Zm8.95,1.949h-7.975V223.73l3.988,7.975,3.987-7.975Z" transform="translate(-16168.116 2626.558)"/>
    <path id="Rectangle_4872" data-name="Rectangle 4872" d="M-.026-1H9.9a.974.974,0,0,1,.974.974V9.9a.974.974,0,0,1-.974.974H-.026A.974.974,0,0,1-1,9.9V-.026A.974.974,0,0,1-.026-1ZM8.924.949H.949V8.924H8.924Z" transform="translate(-15735.383 2808.367)"/>
    <path id="Path_30079" data-name="Path 30079" d="M32.341,33.316H14.974a.974.974,0,0,1-.689-1.664L31.652,14.285a.974.974,0,0,1,1.664.689V32.341A.974.974,0,0,1,32.341,33.316ZM17.327,31.367h14.04V17.327Z" transform="translate(-15814.889 2776)"/>
    <path id="Path_30080" data-name="Path 30080" d="M151.541,352.168a.975.975,0,0,1-.9-1.35l6.2-14.886a.975.975,0,0,1,1.8,0l6.2,14.886a.974.974,0,0,1-1.8.75l-5.3-12.727-5.3,12.727A.975.975,0,0,1,151.541,352.168Z" transform="translate(-15930.367 2504.287)"/>
    <path id="Line_255" data-name="Line 255" d="M10.313.949H-.026A.974.974,0,0,1-1-.026.974.974,0,0,1-.026-1H10.313a.974.974,0,0,1,.974.974A.974.974,0,0,1,10.313.949Z" transform="translate(-15777.767 2853.025)"/>
    <path id="Line_256" data-name="Line 256" d="M34.708.949H-.026A.974.974,0,0,1-1-.026.974.974,0,0,1-.026-1H34.708a.974.974,0,0,1,.974.974A.974.974,0,0,1,34.708.949Z" transform="translate(-15789.965 2818.291)"/>
    <path id="Line_257" data-name="Line 257" d="M27.265.949H-.026A.974.974,0,0,1-1-.026.974.974,0,0,1-.026-1H27.265a.974.974,0,0,1,.974.974A.974.974,0,0,1,27.265.949Z" transform="translate(-15782.521 2808.367)"/>
    <path id="Line_258" data-name="Line 258" d="M22.3.949H-.026A.974.974,0,0,1-1-.026.974.974,0,0,1-.026-1H22.3a.974.974,0,0,1,.974.974A.974.974,0,0,1,22.3.949Z" transform="translate(-15789.965 2828.215)"/>
    <path id="Line_259" data-name="Line 259" d="M7.417.949H-.026A.974.974,0,0,1-1-.026.974.974,0,0,1-.026-1H7.417a.974.974,0,0,1,.974.974A.974.974,0,0,1,7.417.949Z" transform="translate(-15761.434 2840.62)"/>
    <path id="Line_260" data-name="Line 260" d="M-.026,8.392A.974.974,0,0,1-1,7.417V-.026A.974.974,0,0,1-.026-1a.974.974,0,0,1,.974.974V7.417A.974.974,0,0,1-.026,8.392Z" transform="translate(-15757.712 2836.898)"/>
  </g>
</svg>
