<svg xmlns="http://www.w3.org/2000/svg" xmlns:xlink="http://www.w3.org/1999/xlink" width="16.001" height="16.001" viewBox="0 0 16.001 16.001">
  <defs>
    <clipPath id="clip-path">
      <path id="path2754" d="M0-682.665H16v16H0Z" transform="translate(0 682.665)" fill="#f16700"/>
    </clipPath>
  </defs>
  <g id="g2748" transform="translate(0 682.665)">
    <g id="g2750" transform="translate(0 -682.665)">
      <g id="g2752" clip-path="url(#clip-path)">
        <g id="g2758" transform="translate(2.844 13.188)">
          <path id="path2760" d="M-378.593-20h7.5a1.408,1.408,0,0,1,1.406,1.406v.938a.469.469,0,0,1-.469.469h-9.376a.469.469,0,0,1-.469-.469v-.938A1.408,1.408,0,0,1-378.593-20Zm7.969,1.875v-.469a.469.469,0,0,0-.469-.469h-7.5a.469.469,0,0,0-.469.469v.469Z" transform="translate(379.999 20)" fill="#f16700"/>
        </g>
        <g id="g2762" transform="translate(3.781 4.375)">
          <path id="path2764" d="M-12.031-10.249h-7.5A.469.469,0,0,1-20-10.718v-8.813A.469.469,0,0,1-19.531-20a.469.469,0,0,1,.469.469v8.344H-12.5v-8.344A.469.469,0,0,1-12.031-20a.469.469,0,0,1,.469.469v8.813A.469.469,0,0,1-12.031-10.249Z" transform="translate(20 20)" fill="#f16700"/>
        </g>
        <g id="g2766" transform="translate(9.407 4.375)">
          <path id="path2768" d="M-19.531-386.249a.469.469,0,0,1-.469-.469v-8.813a.469.469,0,0,1,.469-.469.469.469,0,0,1,.469.469v8.813A.469.469,0,0,1-19.531-386.249Z" transform="translate(20 395.999)" fill="#f16700"/>
        </g>
        <g id="g2770" transform="translate(7.532 4.375)">
          <path id="path2772" d="M-19.531-386.249a.469.469,0,0,1-.469-.469v-8.813a.469.469,0,0,1,.469-.469.469.469,0,0,1,.469.469v8.813A.469.469,0,0,1-19.531-386.249Z" transform="translate(20 395.999)" fill="#f16700"/>
        </g>
        <g id="g2774" transform="translate(5.657 4.375)">
          <path id="path2776" d="M-19.531-386.249a.469.469,0,0,1-.469-.469v-8.813a.469.469,0,0,1,.469-.469.469.469,0,0,1,.469.469v8.813A.469.469,0,0,1-19.531-386.249Z" transform="translate(20 395.999)" fill="#f16700"/>
        </g>
        <g id="g2778" transform="translate(3.156 3.125)">
          <path id="path2780" d="M-10.781-17.812h-8.751A.469.469,0,0,1-20-18.281v-1.25A.469.469,0,0,1-19.531-20a.469.469,0,0,1,.469.469v.781h7.813v-.781A.469.469,0,0,1-10.781-20a.469.469,0,0,1,.469.469v1.25A.469.469,0,0,1-10.781-17.812Z" transform="translate(20 20)" fill="#f16700"/>
        </g>
        <g id="g2782" transform="translate(11.907 1.875)">
          <path id="path2784" d="M-17.656-70.063a.469.469,0,0,1-.406-.234.469.469,0,0,1,.171-.641.785.785,0,0,0,.391-.677.782.782,0,0,0-.781-.781.782.782,0,0,0-.781.781.469.469,0,0,1-.469.469A.469.469,0,0,1-20-71.614a1.721,1.721,0,0,1,1.719-1.719,1.721,1.721,0,0,1,1.719,1.719,1.725,1.725,0,0,1-.859,1.489A.467.467,0,0,1-17.656-70.063Z" transform="translate(20 73.333)" fill="#f16700"/>
        </g>
        <g id="g2786" transform="translate(0.656 1.875)">
          <path id="path2788" d="M-125.573-70.063a.466.466,0,0,1-.234-.063,1.725,1.725,0,0,1-.859-1.489,1.721,1.721,0,0,1,1.719-1.719,1.721,1.721,0,0,1,1.719,1.719.469.469,0,0,1-.469.469.469.469,0,0,1-.469-.469.782.782,0,0,0-.781-.781.782.782,0,0,0-.781.781.785.785,0,0,0,.391.677.469.469,0,0,1,.171.641A.469.469,0,0,1-125.573-70.063Z" transform="translate(126.666 73.333)" fill="#f16700"/>
        </g>
        <path id="path2790" d="M81.8-682.665H93.052a.469.469,0,0,1,.469.469v1.875a.469.469,0,0,1-.469.469H81.8a.469.469,0,0,1-.469-.469V-682.2A.469.469,0,0,1,81.8-682.665Zm10.782.938H82.271v.938H92.584Z" transform="translate(-79.427 682.665)" fill="#f16700"/>
        <g id="g2792" transform="translate(0.969 0)">
          <path id="path2794" d="M-566.4-19.062H-579.53a.469.469,0,0,1-.469-.469A.469.469,0,0,1-579.53-20H-566.4a.469.469,0,0,1,.469.469A.469.469,0,0,1-566.4-19.062Z" transform="translate(579.999 20)" fill="#f16700"/>
        </g>
      </g>
    </g>
  </g>
</svg>
