<svg id="manager" xmlns="http://www.w3.org/2000/svg" width="12" height="16" viewBox="0 0 12 16">
  <path id="Path_5767" data-name="Path 5767" d="M53.57,135.635c-.242-.073-.944-.273-.974-.282a.534.534,0,0,0-.647.3l-1.324,3.426-.312-2.034.6-.974a.472.472,0,0,0,0-.5.533.533,0,0,0-.456-.248H49.114a.533.533,0,0,0-.456.248.472.472,0,0,0,0,.5l.6.974-.306,2.048-1.329-3.44a.534.534,0,0,0-.647-.3c-.03.008-.732.209-.974.282a3.036,3.036,0,0,0-2.214,2.89v5.045a.512.512,0,0,0,.526.5H55.258a.512.512,0,0,0,.526-.5v-5.045A3.036,3.036,0,0,0,53.57,135.635Zm-8.734,7.439v-4.549a2.039,2.039,0,0,1,1.482-1.945c.1-.031.3-.087.481-.141l2.489,6.441a.5.5,0,0,0,.137.194h-4.59Zm9.9,0h-4.59a.494.494,0,0,0,.137-.194l2.489-6.441c.186.054.38.11.481.141a2.039,2.039,0,0,1,1.482,1.945Z" transform="translate(-43.784 -128.067)" fill="#f16700"/>
  <path id="Path_5768" data-name="Path 5768" d="M94.969,6.154a3.265,3.265,0,0,0,3.419-3.077,3.438,3.438,0,0,0-6.838,0A3.265,3.265,0,0,0,94.969,6.154Zm0-5.161a2.212,2.212,0,0,1,2.316,2.084,2.329,2.329,0,0,1-4.633,0A2.212,2.212,0,0,1,94.969.992Z" transform="translate(-88.969 0)" fill="#f16700"/>
</svg>
