<svg xmlns="http://www.w3.org/2000/svg" width="16" height="16" viewBox="0 0 16 16">
  <path id="megaphone" d="M14.273,12.2h-.151a1.755,1.755,0,0,0-1.7,1.5h0L6.429,15.653H3.336a1.29,1.29,0,0,0-1.257,1.32v.078l0,0H.471A.483.483,0,0,0,0,17.547v3.93a.483.483,0,0,0,.471.494h1.61l0,0a1.314,1.314,0,0,0,.836,1.157v3.512a1.527,1.527,0,0,0,1.488,1.563h.121a1.527,1.527,0,0,0,1.488-1.563V25.607l0,0h.226a.489.489,0,0,0,.483-.47.483.483,0,0,0-.469-.515h-.24l0,0V23.207l0,0h.418L12.4,24.954h0a1.766,1.766,0,0,0,1.722,1.7h.151A1.772,1.772,0,0,0,16,24.839V14.019a1.772,1.772,0,0,0-1.727-1.814Zm-7.3,4.3,5.424-1.761a0,0,0,0,1,0,0v9.179a0,0,0,0,1,0,0L6.97,22.339v-5.83ZM.94,18.038H2.078l0,0v2.945l0,0H.94l0,0V18.04l0,0Zm4.138,8.6a.564.564,0,0,1-.55.577H4.407a.564.564,0,0,1-.55-.577V23.207l0,0H5.076l0,0v3.436Zm.951-4.423H3.336a.327.327,0,0,1-.319-.335V16.973a.327.327,0,0,1,.319-.335H6.028l0,0v5.578Zm9.033,2.54a.865.865,0,1,1-1.728,0V14.077a.866.866,0,0,1,.844-.887h.04a.866.866,0,0,1,.844.887V24.76Z" transform="translate(0 -12.205)" fill="#f16700"/>
</svg>
