<svg id="math" xmlns="http://www.w3.org/2000/svg" width="16" height="16" viewBox="0 0 16 16">
  <path id="Path_5857" data-name="Path 5857" d="M14.563,0H1.438A1.439,1.439,0,0,0,0,1.438V14.563A1.439,1.439,0,0,0,1.438,16H14.563A1.439,1.439,0,0,0,16,14.563V1.438A1.439,1.439,0,0,0,14.563,0Zm.5,1.438V7.531H8.469V.938h6.094A.5.5,0,0,1,15.063,1.438ZM1.438.938H7.531V7.531H.938V1.438A.5.5,0,0,1,1.438.938Zm-.5,13.625V8.469H7.531v6.594H1.438A.5.5,0,0,1,.938,14.563Zm13.625.5H8.469V8.469h6.594v6.094A.5.5,0,0,1,14.563,15.063Zm0,0" fill="#f16700"/>
  <path id="Path_5858" data-name="Path 5858" d="M61.482,63.893h1.446v1.446a.482.482,0,1,0,.964,0V63.893h1.446a.482.482,0,0,0,0-.964H63.893V61.482a.482.482,0,1,0-.964,0v1.446H61.482a.482.482,0,0,0,0,.964Zm0,0" transform="translate(-59.039 -59.039)" fill="#f16700"/>
  <path id="Path_5859" data-name="Path 5859" d="M301.482,121.964h3.857a.482.482,0,0,0,0-.964h-3.857a.482.482,0,1,0,0,.964Zm0,0" transform="translate(-291.782 -117.225)" fill="#f16700"/>
  <path id="Path_5860" data-name="Path 5860" d="M65.339,361H61.482a.482.482,0,1,0,0,.964h3.857a.482.482,0,1,0,0-.964Zm0,0" transform="translate(-59.039 -349.739)" fill="#f16700"/>
  <path id="Path_5861" data-name="Path 5861" d="M312.2,308.109a.482.482,0,0,0-.682,0l-1.364,1.364-1.364-1.364a.482.482,0,1,0-.682.682l1.364,1.364-1.364,1.364a.482.482,0,0,0,.682.682l1.364-1.364,1.364,1.364a.482.482,0,0,0,.682-.682l-1.364-1.364,1.364-1.364A.482.482,0,0,0,312.2,308.109Zm0,0" transform="translate(-298.526 -298.525)" fill="#f16700"/>
  <path id="Path_5862" data-name="Path 5862" d="M121.964,301.482a.482.482,0,1,1-.482-.482A.482.482,0,0,1,121.964,301.482Zm0,0" transform="translate(-117.225 -291.61)" fill="#f16700"/>
  <path id="Path_5863" data-name="Path 5863" d="M121.964,421.482a.482.482,0,1,1-.482-.482A.482.482,0,0,1,121.964,421.482Zm0,0" transform="translate(-117.225 -407.925)" fill="#f16700"/>
</svg>
