<svg xmlns="http://www.w3.org/2000/svg" xmlns:xlink="http://www.w3.org/1999/xlink" width="16.001" height="16.001" viewBox="0 0 16.001 16.001">
  <defs>
    <clipPath id="clip-path">
      <path id="path459" d="M0-682.665H16v16H0Z" transform="translate(0 682.665)" fill="#f16700"/>
    </clipPath>
  </defs>
  <g id="g453" transform="translate(0 682.665)">
    <g id="g455" transform="translate(0 -682.665)">
      <g id="g457" clip-path="url(#clip-path)">
        <g id="g463" transform="translate(2.33 10.404)">
          <path id="path465" d="M-9.128-213.2h-10.4a.469.469,0,0,1-.469-.469.469.469,0,0,1,.469-.469h10.4A1.863,1.863,0,0,0-7.267-216a1.863,1.863,0,0,0-1.861-1.861h-10.4a.469.469,0,0,1-.469-.469.469.469,0,0,1,.469-.469h10.4a2.8,2.8,0,0,1,2.8,2.8A2.8,2.8,0,0,1-9.128-213.2Z" transform="translate(20 218.799)" fill="#f16700"/>
        </g>
        <g id="g467" transform="translate(0 10.404)">
          <path id="path469" d="M-116.6-213.2a2.8,2.8,0,0,1-2.8-2.8,2.8,2.8,0,0,1,2.8-2.8,2.8,2.8,0,0,1,2.8,2.8A2.8,2.8,0,0,1-116.6-213.2Zm0-4.66A1.863,1.863,0,0,0-118.462-216a1.863,1.863,0,0,0,1.861,1.861A1.863,1.863,0,0,0-114.74-216,1.863,1.863,0,0,0-116.6-217.862Z" transform="translate(119.4 218.799)" fill="#f16700"/>
        </g>
        <g id="g471" transform="translate(2.33 12.734)">
          <path id="path473" d="M-68.065-103.1a.467.467,0,0,1-.235-.063,2.81,2.81,0,0,1-1.4-2.423.469.469,0,0,1,.469-.469h2.33a.469.469,0,0,1,.469.469.469.469,0,0,1-.469.469h-1.8a1.874,1.874,0,0,0,.871,1.143.469.469,0,0,1,.17.641A.469.469,0,0,1-68.065-103.1Z" transform="translate(69.699 106.06)" fill="#f16700"/>
        </g>
        <g id="g475" transform="translate(1.094 0)">
          <path id="path477" d="M-287.757-175.312a.469.469,0,0,1-.131-.019l-6.438-1.875a.469.469,0,0,1-.338-.45.469.469,0,0,1,.338-.45l6.438-1.875a.469.469,0,0,1,.262,0l6.438,1.875a.469.469,0,0,1,.338.45.469.469,0,0,1-.338.45l-6.438,1.875A.469.469,0,0,1-287.757-175.312Zm-4.761-2.344,4.761,1.387,4.761-1.387-4.761-1.387Z" transform="translate(294.663 179.999)" fill="#f16700"/>
        </g>
        <g id="g479" transform="translate(13.969 1.875)">
          <path id="path481" d="M-19.531-296.27a.469.469,0,0,1-.469-.469v-6.653a.469.469,0,0,1,.469-.469.469.469,0,0,1,.469.469v6.653A.469.469,0,0,1-19.531-296.27Z" transform="translate(20 303.861)" fill="#f16700"/>
        </g>
        <g id="g483" transform="translate(3.219 2.494)">
          <path id="path485" d="M-15.218-13.028c-2.3,0-4.782-.567-4.782-1.813v-4.691A.469.469,0,0,1-19.531-20a.469.469,0,0,1,.469.469v4.691c.069.235,1.358.875,3.844.875s3.775-.64,3.845-.883v-4.683A.469.469,0,0,1-10.905-20a.469.469,0,0,1,.469.469v4.691C-10.437-13.6-12.915-13.028-15.218-13.028Z" transform="translate(20 20)" fill="#f16700"/>
        </g>
      </g>
    </g>
  </g>
</svg>
