<svg xmlns="http://www.w3.org/2000/svg" width="72.313" height="57" viewBox="0 0 72.313 57">
  <path id="Union_76" data-name="Union 76" d="M10782.185-2249l-.189-.091a22.671,22.671,0,0,1-6.606-5.366,25.894,25.894,0,0,1-4.492-7.383,29.806,29.806,0,0,1-2.037-11.125v-.811l.8-.1c.109-.015,10.862-1.494,11.821-6.967l.135-.764h1.934l.135.764c.962,5.473,11.715,6.951,11.824,6.967l.8.1v.811a29.845,29.845,0,0,1-2.037,11.125,25.818,25.818,0,0,1-4.5,7.383,22.606,22.606,0,0,1-6.605,5.366l-.189.091Zm-11.47-23.177a25.375,25.375,0,0,0,6.016,16.444,22.049,22.049,0,0,0,5.854,4.867,21.964,21.964,0,0,0,5.857-4.867,25.367,25.367,0,0,0,6.013-16.444c-2.421-.429-9.464-2.022-11.87-6.338C10780.179-2274.2,10773.139-2272.6,10770.715-2272.176Zm-36.519,13.614a3.809,3.809,0,0,1-3.8-3.807v-33.587a3.809,3.809,0,0,1,3.8-3.807h49.761a3.809,3.809,0,0,1,3.808,3.807v17.471a.926.926,0,0,1-.925.925.926.926,0,0,1-.924-.925v-17.471a1.96,1.96,0,0,0-1.959-1.959H10734.2a1.961,1.961,0,0,0-1.957,1.959v33.587a1.961,1.961,0,0,0,1.957,1.959h35.588a.923.923,0,0,1,.923.922.923.923,0,0,1-.923.925Zm47.641-2.3v-3.708a2.776,2.776,0,0,1-1.848-2.614,2.775,2.775,0,0,1,2.772-2.773,2.775,2.775,0,0,1,2.771,2.773,2.776,2.776,0,0,1-1.85,2.614c0,.013,0,.026,0,.039v3.669a.924.924,0,0,1-.922.925A.925.925,0,0,1,10781.837-2260.864Zm0-6.323a.923.923,0,0,0,.925.923.922.922,0,0,0,.922-.923.924.924,0,0,0-.922-.925A.925.925,0,0,0,10781.837-2267.187ZM10725-2267.6v-33.587a3.812,3.812,0,0,1,3.807-3.807h49.762a3.808,3.808,0,0,1,3.8,3.807.921.921,0,0,1-.922.923.924.924,0,0,1-.924-.923,1.96,1.96,0,0,0-1.958-1.959h-49.762a1.959,1.959,0,0,0-1.957,1.959v33.587a1.959,1.959,0,0,0,1.957,1.959.925.925,0,0,1,.926.923.926.926,0,0,1-.926.925A3.812,3.812,0,0,1,10725-2267.6Zm20.308,2.845a.925.925,0,0,1-.925-.925.925.925,0,0,1,.925-.925h4.337a.927.927,0,0,1,.926.925.927.927,0,0,1-.926.925Zm-7.934,0a.925.925,0,0,1-.925-.925.925.925,0,0,1,.925-.925h4.337a.927.927,0,0,1,.926.925.927.927,0,0,1-.926.925Zm21.72-4.929a.924.924,0,0,1-.926-.925.926.926,0,0,1,.926-.925h7.11a.925.925,0,0,1,.922.925.923.923,0,0,1-.922.925Zm-10.86,0a.922.922,0,0,1-.925-.922.924.924,0,0,1,.925-.925h7.111a.923.923,0,0,1,.922.925.921.921,0,0,1-.922.922Zm-10.859,0a.921.921,0,0,1-.925-.922.924.924,0,0,1,.925-.925h7.109a.924.924,0,0,1,.926.925.922.922,0,0,1-.926.922Zm7.492-14.758a4.609,4.609,0,0,1-3.232,1.32,4.626,4.626,0,0,1-4.621-4.621,4.627,4.627,0,0,1,4.621-4.62,4.607,4.607,0,0,1,3.235,1.325,4.636,4.636,0,0,1,3.234-1.325,4.627,4.627,0,0,1,4.621,4.62,4.626,4.626,0,0,1-4.621,4.621A4.6,4.6,0,0,1,10744.866-2284.449Zm1.058-5.013a4.552,4.552,0,0,1,.332,1.712,4.608,4.608,0,0,1-.329,1.712,2.748,2.748,0,0,0,2.177,1.06,2.777,2.777,0,0,0,2.773-2.773,2.777,2.777,0,0,0-2.773-2.773A2.742,2.742,0,0,0,10745.924-2289.462Zm-7.061,1.712a2.775,2.775,0,0,0,2.771,2.773,2.775,2.775,0,0,0,2.772-2.773,2.775,2.775,0,0,0-2.772-2.773A2.775,2.775,0,0,0,10738.863-2287.75Z" transform="translate(-10724.5 2305.499)" fill="#2c2c2c" stroke="rgba(0,0,0,0)" stroke-width="1"/>
</svg>
