<svg id="nurse" xmlns="http://www.w3.org/2000/svg" width="13.328" height="16" viewBox="0 0 13.328 16">
  <path id="Path_5792" data-name="Path 5792" d="M51.129,10.907l-2.108-.79a3.378,3.378,0,0,0,.606-.837h.21a2.233,2.233,0,0,0,2.221-2.24,5.443,5.443,0,0,0-2.812-4.776L49.6,0H43.727l.354,2.263A5.436,5.436,0,0,0,41.269,7.04a2.233,2.233,0,0,0,2.221,2.24h.21a3.377,3.377,0,0,0,.606.837l-2.108.79A3.415,3.415,0,0,0,40,14.1V16h.952V14.1a2.451,2.451,0,0,1,1.578-2.289l2.069-.775,1.612,4.958.906,0,1.573-4.969,2.108.789A2.451,2.451,0,0,1,52.376,14.1V16h.952V14.1A3.415,3.415,0,0,0,51.129,10.907ZM48.487.96l-.326,2.08H45.167L44.841.96ZM42.221,7.04a4.48,4.48,0,0,1,2.02-3.756L44.353,4h4.622l.112-.715a4.517,4.517,0,0,1,2.02,3.755,1.277,1.277,0,0,1-1.159,1.275A3.394,3.394,0,0,0,50,7.744V6.4H49.52a2.783,2.783,0,0,1-2.3-1.226l-.141-.214h-.827l-.141.214a2.783,2.783,0,0,1-2.3,1.226h-.476V7.744a3.394,3.394,0,0,0,.048.571A1.277,1.277,0,0,1,42.221,7.04Zm2.063.289a3.762,3.762,0,0,0,2.38-1.3,3.762,3.762,0,0,0,2.38,1.3v.415a2.38,2.38,0,1,1-4.76,0Zm2.374,6.952-1.094-3.365a3.307,3.307,0,0,0,2.154.016Z" transform="translate(-40 0)" fill="#f16700"/>
  <path id="Path_5793" data-name="Path 5793" d="M312.42,412h-.968v.968H310v1.872h.968v-.9h.968v.9h.968v-1.872h-.484Z" transform="translate(-301.512 -398.84)" fill="#f16700"/>
  <path id="Path_5794" data-name="Path 5794" d="M115,440h1.613v.968H115Z" transform="translate(-112.625 -425.936)" fill="#f16700"/>
</svg>
