<svg xmlns="http://www.w3.org/2000/svg" width="57.501" height="56" viewBox="0 0 57.501 56">
  <g id="ontime" transform="translate(-4983.938 -2836.872)">
    <g id="Group_2969" data-name="Group 2969" transform="translate(5012.406 2863.838)">
      <path id="Path_10720" data-name="Path 10720" d="M4211.2-4567.655a14.533,14.533,0,0,1-14.517-14.517,14.533,14.533,0,0,1,14.517-14.517,14.533,14.533,0,0,1,14.517,14.517A14.533,14.533,0,0,1,4211.2-4567.655Zm0-27.337a12.835,12.835,0,0,0-12.82,12.82,12.835,12.835,0,0,0,12.82,12.82,12.834,12.834,0,0,0,12.82-12.82A12.834,12.834,0,0,0,4211.2-4594.992Z" transform="translate(-4196.68 4596.689)" fill="#2c2c2c"/>
    </g>
    <g id="Group_2973" data-name="Group 2973" transform="translate(4991.463 2861.224)">
      <rect id="Rectangle_1588" data-name="Rectangle 1588" width="6.841" height="6.841" transform="translate(0 0)" fill="#2c2c2c"/>
    </g>
    <g id="Group_2974" data-name="Group 2974" transform="translate(5002.813 2861.224)">
      <rect id="Rectangle_1589" data-name="Rectangle 1589" width="6.841" height="6.841" transform="translate(0 0)" fill="#2c2c2c"/>
    </g>
    <g id="Group_2975" data-name="Group 2975" transform="translate(4991.463 2872.573)">
      <rect id="Rectangle_1590" data-name="Rectangle 1590" width="6.841" height="6.841" transform="translate(0)" fill="#2c2c2c"/>
    </g>
    <g id="Group_2976" data-name="Group 2976" transform="translate(5026.062 2871.725)">
      <path id="Path_10724" data-name="Path 10724" d="M4398.469-4477.683H4390.7a.848.848,0,0,1-.848-.849v-5.752a.848.848,0,0,1,.848-.849.849.849,0,0,1,.849.849v4.9h6.925a.849.849,0,0,1,.849.849A.849.849,0,0,1,4398.469-4477.683Z" transform="translate(-4389.847 4485.132)" fill="#2c2c2c"/>
    </g>
    <g id="Group_2977" data-name="Group 2977" transform="translate(4983.938 2845.451)">
      <path id="Path_10725" data-name="Path 10725" d="M3819.6-4816.105h-22.885a2.717,2.717,0,0,1-2.714-2.714v-35.25a2.717,2.717,0,0,1,2.714-2.714h37.429a2.717,2.717,0,0,1,2.714,2.714v12.248a.848.848,0,0,1-.848.848.848.848,0,0,1-.848-.848v-12.248a1.019,1.019,0,0,0-1.017-1.017h-37.429a1.018,1.018,0,0,0-1.017,1.017v35.25a1.018,1.018,0,0,0,1.017,1.017H3819.6a.849.849,0,0,1,.848.849A.849.849,0,0,1,3819.6-4816.105Z" transform="translate(-3794 4856.783)" fill="#2c2c2c"/>
    </g>
    <g id="Group_2978" data-name="Group 2978" transform="translate(4984.319 2854.468)">
      <path id="Path_10726" data-name="Path 10726" d="M3840.986-4727.537h-40.752a.848.848,0,0,1-.848-.848.849.849,0,0,1,.848-.849h40.752a.849.849,0,0,1,.848.849A.848.848,0,0,1,3840.986-4727.537Z" transform="translate(-3799.386 4729.234)" fill="#2c2c2c"/>
    </g>
    <g id="Group_2979" data-name="Group 2979" transform="translate(4997.833 2836.872)">
      <path id="Path_10727" data-name="Path 10727" d="M3991.393-4965.859a.848.848,0,0,1-.848-.848v-10.572a.848.848,0,0,1,.848-.849.849.849,0,0,1,.849.849v10.572A.848.848,0,0,1,3991.393-4965.859Z" transform="translate(-3990.545 4978.128)" fill="#2c2c2c"/>
    </g>
    <g id="Group_2980" data-name="Group 2980" transform="translate(5011.203 2836.872)">
      <path id="Path_10728" data-name="Path 10728" d="M4180.517-4965.859a.848.848,0,0,1-.848-.848v-10.572a.848.848,0,0,1,.848-.849.849.849,0,0,1,.849.849v10.572A.849.849,0,0,1,4180.517-4965.859Z" transform="translate(-4179.669 4978.128)" fill="#2c2c2c"/>
    </g>
    <g id="Group_2985" data-name="Group 2985" transform="translate(5004.518 2860.917)">
      <path id="Path_10730" data-name="Path 10730" d="M4087.515-4632.281a.842.842,0,0,1-.194-.022.845.845,0,0,1-.532-.387l-1.561-2.576a.849.849,0,0,1,.286-1.165.849.849,0,0,1,1.165.286l1.112,1.836,5.618-3.561a.849.849,0,0,1,1.171.263.848.848,0,0,1-.263,1.17l-6.35,4.023A.848.848,0,0,1,4087.515-4632.281Z" transform="translate(-4085.106 4638.001)" fill="#aaa"/>
    </g>
  </g>
</svg>
