<svg xmlns="http://www.w3.org/2000/svg" width="63" height="56" viewBox="0 0 63 56">
  <path id="Union_66" data-name="Union 66" d="M20.409,56,7.681,51.89H5.4V56H0V53.945H3.343V28.9H0V26.844H5.4v3.725H6.717a11.544,11.544,0,0,1,7.94-3.7V1.028A1.028,1.028,0,0,1,15.686,0H61.971A1.028,1.028,0,0,1,63,1.028V47.266a1.028,1.028,0,0,1-1.028,1.028H50.535a4.649,4.649,0,0,1,.764,2.7c0,1.871-.8,5.009-6.171,5.009ZM8,49.835l12.729,4.11H45.128c3.647,0,4.114-1.579,4.114-2.954,0-.738,0-2.7-3.729-2.7H31.886c-4.389,0-7.618-1.122-9.6-3.334a7.933,7.933,0,0,1-1.969-5.772l.1-.912H33.171c2.044,0,2.7-.749,2.7-3.083,0-1.729-.925-2.569-2.829-2.569H23.7l-.308-.357A11.3,11.3,0,0,0,15.428,28.9a9.42,9.42,0,0,0-7.4,3.3l-.308.425H5.4V49.835Zm15.841-6.22c1.575,1.741,4.28,2.624,8.04,2.624H60.943V2.055h-15.3v11.5a2.38,2.38,0,0,1-2.378,2.376H34.007a2.38,2.38,0,0,1-2.379-2.376V2.055H16.714V26.906a13.323,13.323,0,0,1,7.9,3.663h8.432c3.014,0,4.886,1.772,4.886,4.624,0,1.271,0,5.138-4.757,5.138H22.387A5.83,5.83,0,0,0,23.846,43.615Zm9.84-30.064a.322.322,0,0,0,.321.321h9.257a.322.322,0,0,0,.321-.321V2.055h-9.9Z" fill="#2c2c2c"/>
</svg>
