<svg xmlns="http://www.w3.org/2000/svg" xmlns:xlink="http://www.w3.org/1999/xlink" width="16" height="16" viewBox="0 0 16 16">
  <defs>
    <clipPath id="clip-path">
      <path id="path765" d="M0-682.665H16v16H0Z" transform="translate(0 682.665)" fill="#f16700"/>
    </clipPath>
  </defs>
  <g id="g759" transform="translate(0 682.665)">
    <g id="g761" transform="translate(0 -682.665)">
      <g id="g763" clip-path="url(#clip-path)">
        <g id="g769" transform="translate(5.602 0)">
          <path id="path771" d="M-22.809-289.478a5.157,5.157,0,0,1-3.351-1.238.469.469,0,0,1-.051-.661.469.469,0,0,1,.661-.051,4.219,4.219,0,0,0,2.742,1.012,4.224,4.224,0,0,0,4.219-4.219,4.2,4.2,0,0,0-2.953-4.026.469.469,0,0,1-.328-.447v-5.433h-1.875v5.433a.469.469,0,0,1-.328.447,4.193,4.193,0,0,0-1.343.71.469.469,0,0,1-.658-.078.469.469,0,0,1,.078-.658,5.13,5.13,0,0,1,1.314-.752v-5.57a.469.469,0,0,1,.469-.469H-21.4a.469.469,0,0,1,.469.469v5.57a5.133,5.133,0,0,1,3.281,4.8A5.162,5.162,0,0,1-22.809-289.478Z" transform="translate(26.324 305.478)" fill="#f16700"/>
        </g>
        <g id="g773" transform="translate(6.46 0)">
          <path id="path775" d="M-15.154-19.062h-4.378A.469.469,0,0,1-20-19.531.469.469,0,0,1-19.531-20h4.378a.469.469,0,0,1,.469.469A.469.469,0,0,1-15.154-19.062Z" transform="translate(20 20)" fill="#f16700"/>
        </g>
        <g id="g777" transform="translate(5.812 9.75)">
          <path id="path779" d="M-12.324-22.686a.469.469,0,0,1-.13-.018c-.141-.041-.272-.092-.4-.141A1.7,1.7,0,0,0-13.411-23a1.083,1.083,0,0,0-.354.117,1.8,1.8,0,0,1-.732.2,1.8,1.8,0,0,1-.732-.2A1.083,1.083,0,0,0-15.584-23a1.083,1.083,0,0,0-.354.117,1.8,1.8,0,0,1-.732.2,1.8,1.8,0,0,1-.732-.2A1.083,1.083,0,0,0-17.757-23a1.083,1.083,0,0,0-.354.116,1.8,1.8,0,0,1-.732.2,1.8,1.8,0,0,1-.732-.2c-.045-.02-.091-.04-.136-.058a.469.469,0,0,1-.259-.61.469.469,0,0,1,.61-.259c.054.022.109.046.163.07a1.083,1.083,0,0,0,.354.116,1.083,1.083,0,0,0,.354-.117,1.8,1.8,0,0,1,.732-.2,1.8,1.8,0,0,1,.732.2,1.083,1.083,0,0,0,.354.117,1.083,1.083,0,0,0,.354-.117,1.8,1.8,0,0,1,.732-.2,1.8,1.8,0,0,1,.732.2,1.083,1.083,0,0,0,.354.116,1.083,1.083,0,0,0,.354-.117,1.8,1.8,0,0,1,.732-.2,2.445,2.445,0,0,1,.9.217c.112.044.218.085.319.114a.469.469,0,0,1,.321.58A.469.469,0,0,1-12.324-22.686Z" transform="translate(20.005 23.936)" fill="#f16700"/>
        </g>
        <g id="g781" transform="translate(8.492 11.656)">
          <path id="path783" d="M-19.531-39.062a.47.47,0,0,0,.469-.469A.47.47,0,0,0-19.531-40a.47.47,0,0,0-.469.469.47.47,0,0,0,.469.469" transform="translate(20 40)" fill="#f16700" fill-rule="evenodd"/>
        </g>
        <g id="g785" transform="translate(9.868 7.937)">
          <path id="path787" d="M-19.531-39.062a.47.47,0,0,0,.469-.469A.47.47,0,0,0-19.531-40a.47.47,0,0,0-.469.469.47.47,0,0,0,.469.469" transform="translate(20 40)" fill="#f16700" fill-rule="evenodd"/>
        </g>
        <g id="g789" transform="translate(10.211 12.594)">
          <path id="path791" d="M-19.531-39.062a.47.47,0,0,0,.469-.469A.47.47,0,0,0-19.531-40a.47.47,0,0,0-.469.469.47.47,0,0,0,.469.469" transform="translate(20 40)" fill="#f16700" fill-rule="evenodd"/>
        </g>
        <g id="g793" transform="translate(2.039 3.75)">
          <path id="path795" d="M-168.864-20h3.5a.469.469,0,0,1,.469.469v9.562a2.221,2.221,0,0,1-2.219,2.219,2.221,2.221,0,0,1-2.219-2.219v-9.562A.469.469,0,0,1-168.864-20Zm3.031.937H-168.4v9.093a1.283,1.283,0,0,0,1.281,1.281,1.283,1.283,0,0,0,1.281-1.281Z" transform="translate(169.333 20)" fill="#f16700"/>
        </g>
        <g id="g797" transform="translate(1.727 3.75)">
          <path id="path799" d="M-15.406-19.062h-4.125A.469.469,0,0,1-20-19.531.469.469,0,0,1-19.531-20h4.125a.469.469,0,0,1,.469.469A.469.469,0,0,1-15.406-19.062Z" transform="translate(20 20)" fill="#f16700"/>
        </g>
        <g id="g801" transform="translate(2.352 12.687)">
          <path id="path803" d="M-18.937-19.062h-.594A.469.469,0,0,1-20-19.531.469.469,0,0,1-19.531-20h.594a.469.469,0,0,1,.469.469A.469.469,0,0,1-18.937-19.062Z" transform="translate(20 20)" fill="#f16700"/>
        </g>
        <g id="g805" transform="translate(2.352 10.812)">
          <path id="path807" d="M-18.937-19.062h-.594A.469.469,0,0,1-20-19.531.469.469,0,0,1-19.531-20h.594a.469.469,0,0,1,.469.469A.469.469,0,0,1-18.937-19.062Z" transform="translate(20 20)" fill="#f16700"/>
        </g>
        <g id="g809" transform="translate(2.352 8.937)">
          <path id="path811" d="M-18.937-19.062h-.594A.469.469,0,0,1-20-19.531.469.469,0,0,1-19.531-20h.594a.469.469,0,0,1,.469.469A.469.469,0,0,1-18.937-19.062Z" transform="translate(20 20)" fill="#f16700"/>
        </g>
        <g id="g813" transform="translate(2.352 7.156)">
          <path id="path815" d="M-16.5-19.062h-3.031A.469.469,0,0,1-20-19.531.469.469,0,0,1-19.531-20H-16.5a.469.469,0,0,1,.469.469A.469.469,0,0,1-16.5-19.062Z" transform="translate(20 20)" fill="#f16700"/>
        </g>
      </g>
    </g>
  </g>
</svg>
