<svg xmlns="http://www.w3.org/2000/svg" width="60.192" height="56" viewBox="0 0 60.192 56">
  <g id="Plagi-free" transform="translate(-1461 -2833.571)">
    <g id="Group_2938" data-name="Group 2938" transform="translate(1461 2844.648)">
      <path id="Path_10690" data-name="Path 10690" d="M308.793-4782.639H274.059a3,3,0,0,1-3-3v-41.086a.838.838,0,0,1,.838-.838.838.838,0,0,1,.838.838v41.086a1.323,1.323,0,0,0,1.322,1.322h34.733a1.323,1.323,0,0,0,1.322-1.322V-4796.8a.837.837,0,0,1,.838-.837.837.837,0,0,1,.838.837v11.166A3,3,0,0,1,308.793-4782.639Z" transform="translate(-271.062 4827.561)" fill="#2c2c2c"/>
    </g>
    <g id="Group_2939" data-name="Group 2939" transform="translate(1471.983 2833.571)">
      <path id="Path_10691" data-name="Path 10691" d="M455.537-4973.1a.838.838,0,0,1-.838-.838v-4.492a1.323,1.323,0,0,0-1.322-1.322h-26.04a.838.838,0,0,1-.838-.837.838.838,0,0,1,.838-.838h26.04a3,3,0,0,1,3,3v4.492A.838.838,0,0,1,455.537-4973.1Z" transform="translate(-426.499 4981.428)" fill="#2c2c2c"/>
    </g>
    <g id="Group_2940" data-name="Group 2940" transform="translate(1461 2833.571)">
      <path id="Path_10692" data-name="Path 10692" d="M282.7-4968.955H271.9a.838.838,0,0,1-.774-.518.838.838,0,0,1,.182-.913l10.8-10.8a.838.838,0,0,1,.913-.182.838.838,0,0,1,.517.774v10.8A.838.838,0,0,1,282.7-4968.955Zm-8.775-1.676h7.937v-7.937Z" transform="translate(-271.062 4981.429)" fill="#2c2c2c"/>
    </g>
    <g id="Group_2941" data-name="Group 2941" transform="translate(1475.253 2844.798)">
      <path id="Path_10693" data-name="Path 10693" d="M485.247-4819.946H474.5a.838.838,0,0,1-.838-.838.838.838,0,0,1,.838-.837h10.748a.838.838,0,0,1,.838.837A.838.838,0,0,1,485.247-4819.946Z" transform="translate(-473.661 4821.622)" fill="#2c2c2c"/>
    </g>
    <g id="Group_2942" data-name="Group 2942" transform="translate(1475.246 2851.317)">
      <path id="Path_10694" data-name="Path 10694" d="M482.237-4727.155H474.5a.838.838,0,0,1-.838-.837.838.838,0,0,1,.838-.838h7.738a.838.838,0,0,1,.838.838A.838.838,0,0,1,482.237-4727.155Z" transform="translate(-473.661 4728.831)" fill="#2c2c2c"/>
    </g>
    <g id="Group_2943" data-name="Group 2943" transform="translate(1467.479 2875.944)">
      <path id="Path_10695" data-name="Path 10695" d="M390.787-4376.611H364.692a.838.838,0,0,1-.838-.838.838.838,0,0,1,.838-.838h26.095a.838.838,0,0,1,.838.838A.838.838,0,0,1,390.787-4376.611Z" transform="translate(-363.854 4378.287)" fill="#2c2c2c"/>
    </g>
    <g id="Group_2944" data-name="Group 2944" transform="translate(1468.231 2858.055)">
      <path id="Path_10696" data-name="Path 10696" d="M393.075-4620.809H375.467a.838.838,0,0,1-.838-.838v-10.978a.838.838,0,0,1,.838-.838h13.22a.838.838,0,0,1,.838.838.838.838,0,0,1-.838.838H376.3v9.3h16.77a.838.838,0,0,1,.838.838A.838.838,0,0,1,393.075-4620.809Z" transform="translate(-374.629 4633.462)" fill="#2c2c2c"/>
    </g>
    <g id="Group_2945" data-name="Group 2945" transform="translate(1484.935 2843.955)">
      <path id="Path_10697" data-name="Path 10697" d="M622.964-4806.02a14.261,14.261,0,0,1-14.245-14.245,14.261,14.261,0,0,1,14.245-14.245,14.262,14.262,0,0,1,14.245,14.245A14.261,14.261,0,0,1,622.964-4806.02Zm0-26.814a12.584,12.584,0,0,0-12.57,12.569,12.584,12.584,0,0,0,12.57,12.57,12.584,12.584,0,0,0,12.57-12.57A12.584,12.584,0,0,0,622.964-4832.834Z" transform="translate(-608.719 4834.51)" fill="#2c2c2c"/>
    </g>
    <g id="Group_2937" data-name="Group 2937" transform="translate(1494.433 2847.873)">
      <path id="Path_10689" data-name="Path 10689" d="M750.143-4764.588a.837.837,0,0,1-.637-.293l-4.544-5.315a.838.838,0,0,1,.093-1.182.837.837,0,0,1,1.181.093l4.016,4.7,14.264-11.437a.838.838,0,0,1,1.178.129.838.838,0,0,1-.13,1.178l-14.9,11.945A.833.833,0,0,1,750.143-4764.588Z" transform="translate(-744.761 4778.208)" fill="#2c2c2c"/>
    </g>
    <g id="Group_2946" data-name="Group 2946" transform="translate(1509.23 2866.209)">
      <path id="Path_10698" data-name="Path 10698" d="M967.809-4506.06a.837.837,0,0,1-.576-.229l-10.286-9.738a.838.838,0,0,1-.032-1.185.838.838,0,0,1,1.184-.032l10.286,9.738a.838.838,0,0,1,.032,1.185A.836.836,0,0,1,967.809-4506.06Z" transform="translate(-956.686 4517.474)" fill="#2c2c2c"/>
    </g>
  </g>
</svg>
