<svg id="programming" xmlns="http://www.w3.org/2000/svg" width="17.391" height="16" viewBox="0 0 17.391 16">
  <path id="Path_6273" data-name="Path 6273" d="M15.84,21H1.551A1.555,1.555,0,0,0,0,22.556V32.9a1.555,1.555,0,0,0,1.551,1.556H5.612l-.525,1.52H4.573a.511.511,0,0,0,0,1.021h8.246a.511.511,0,0,0,0-1.021H12.3l-.525-1.52H15.84A1.555,1.555,0,0,0,17.391,32.9V22.556A1.555,1.555,0,0,0,15.84,21ZM1.551,22.021H15.84a.534.534,0,0,1,.532.534v1.5H1.019v-1.5a.534.534,0,0,1,.532-.534Zm9.675,13.957H6.165l.525-1.52H10.7Zm4.614-2.542H1.551a.534.534,0,0,1-.532-.535V25.078H16.372V32.9A.534.534,0,0,1,15.84,33.437Z" transform="translate(0 -21)" fill="#f16700"/>
  <path id="Path_6274" data-name="Path 6274" d="M48.554,67.038h.755a.506.506,0,0,0,0-1.012h-.755a.506.506,0,0,0,0,1.012Z" transform="translate(-46.427 -64.507)" fill="#f16700"/>
  <path id="Path_6275" data-name="Path 6275" d="M115.464,67.038h.755a.506.506,0,0,0,0-1.012h-.755a.506.506,0,1,0,0,1.012Z" transform="translate(-111.05 -64.507)" fill="#f16700"/>
  <path id="Path_6276" data-name="Path 6276" d="M182.375,67.038h.755a.506.506,0,1,0,0-1.012h-.755a.506.506,0,1,0,0,1.012Z" transform="translate(-175.687 -64.507)" fill="#f16700"/>
  <path id="Path_6277" data-name="Path 6277" d="M118.122,193.831a.506.506,0,0,0-.715.025l-1.727,1.851a.506.506,0,0,0,0,.69l1.727,1.851a.506.506,0,1,0,.74-.69l-1.4-1.506,1.4-1.506A.506.506,0,0,0,118.122,193.831Z" transform="translate(-111.615 -187.794)" fill="#f16700"/>
  <path id="Path_6278" data-name="Path 6278" d="M224.387,193.716a.506.506,0,0,0-.638.324l-1.212,3.7a.506.506,0,1,0,.962.315l1.212-3.7A.506.506,0,0,0,224.387,193.716Z" transform="translate(-214.946 -187.79)" fill="#f16700"/>
  <path id="Path_6279" data-name="Path 6279" d="M316.162,193.855a.506.506,0,1,0-.74.69l1.4,1.506-1.4,1.506a.506.506,0,1,0,.74.69l1.727-1.851a.506.506,0,0,0,0-.69Z" transform="translate(-304.563 -187.793)" fill="#f16700"/>
</svg>
