<svg xmlns="http://www.w3.org/2000/svg" width="50.664" height="55" viewBox="0 0 50.664 55">
  <path id="proofreading" d="M16.589,55a2.073,2.073,0,0,1-2.064-2.077V51.641H1.668A1.676,1.676,0,0,1,0,49.962V1.68A1.676,1.676,0,0,1,1.668,0h32.8a1.675,1.675,0,0,1,1.667,1.68V3.358H48.6a2.073,2.073,0,0,1,2.064,2.078V52.923A2.073,2.073,0,0,1,48.6,55Zm-.4-2.077a.4.4,0,0,0,.4.4H48.6a.4.4,0,0,0,.4-.4V5.436a.4.4,0,0,0-.4-.4H36.139V25.645h8.618a.84.84,0,0,1,0,1.68H36.139V49.962a1.675,1.675,0,0,1-1.667,1.68H16.193ZM1.668,49.962h32.8V1.68H1.667Zm4.865-3.533a.84.84,0,0,1,0-1.68H16.541a.84.84,0,0,1,0,1.68Zm0-5.7a.838.838,0,0,1-.835-.84v-7a.838.838,0,0,1,.835-.84H29.954a.837.837,0,0,1,.834.84v7a.837.837,0,0,1-.834.84Zm.834-1.68H29.119V33.728H7.367Zm30.649-5.318a.84.84,0,0,1,0-1.68h6.742a.84.84,0,0,1,0,1.68Zm-21.491-6.4a.84.84,0,0,1,0-1.68H29.954a.84.84,0,0,1,0,1.68Zm-9.992,0a.84.84,0,0,1,0-1.68H12.51a.84.84,0,0,1,0,1.68Zm31.482-6.333a.839.839,0,0,1,0-1.679h6.95a.839.839,0,0,1,0,1.679ZM23,20.958a.84.84,0,0,1,0-1.68h6.95a.84.84,0,0,1,0,1.68Zm-16.471,0a.84.84,0,0,1,0-1.68H19.46a.84.84,0,0,1,0,1.68Zm9.33-4.835a1.636,1.636,0,0,1-1.415-.831l-2.2-3.873a1.683,1.683,0,0,1,0-1.654l2.206-3.876a1.628,1.628,0,0,1,1.411-.828h4.348a1.631,1.631,0,0,1,1.415.831l2.2,3.872a1.685,1.685,0,0,1,0,1.655l-2.2,3.875a1.633,1.633,0,0,1-1.412.829Zm.025-9.382-2.2,3.859,2.206,3.86,4.311-.016,2.172-3.859-2.2-3.86Zm.623,5.475-1.07-1.257a.843.843,0,0,1,.09-1.184.831.831,0,0,1,1.177.09l.561.66L19.5,8.842a.831.831,0,0,1,1.167.168.844.844,0,0,1-.167,1.176l-2.854,2.155a.83.83,0,0,1-1.134-.126Z"/>
</svg>
