<svg id="psychology_1_" data-name="psychology (1)" xmlns="http://www.w3.org/2000/svg" width="14" height="16" viewBox="0 0 14 16">
  <path id="Path_6280" data-name="Path 6280" d="M81.906,94.193a.471.471,0,0,1,.172.644l-.942,1.632a.471.471,0,0,1-.643.172l-.736-.425v.85a.471.471,0,0,1-.471.471H77.4a.471.471,0,0,1-.471-.471v-.85l-.736.425a.471.471,0,0,1-.644-.172l-.942-1.632a.471.471,0,0,1,.172-.644l.736-.425-.736-.425a.471.471,0,0,1-.172-.644l.942-1.632A.471.471,0,0,1,76.2,90.9l.736.425v-.85A.471.471,0,0,1,77.4,90h1.884a.471.471,0,0,1,.471.471v.85l.736-.425a.471.471,0,0,1,.643.172l.942,1.632a.471.471,0,0,1-.172.644l-.736.425Zm-1.7-.219a.91.91,0,0,0,0-.411.471.471,0,0,1,.233-.46l.589-.34-.471-.816-.585.338a.471.471,0,0,1-.515-.029,1.871,1.871,0,0,0-.359-.213.471.471,0,0,1-.282-.432v-.67h-.942v.67a.471.471,0,0,1-.282.432,1.878,1.878,0,0,0-.359.213.471.471,0,0,1-.515.029l-.585-.338-.471.816.589.34a.471.471,0,0,1,.233.46.913.913,0,0,0,0,.411.471.471,0,0,1-.233.46l-.589.34.471.816.585-.338a.471.471,0,0,1,.515.029,1.861,1.861,0,0,0,.359.213.471.471,0,0,1,.282.432v.67h.942v-.67a.471.471,0,0,1,.282-.432,1.864,1.864,0,0,0,.359-.213.471.471,0,0,1,.515-.029l.585.338.471-.816-.589-.34A.471.471,0,0,1,80.205,93.973Zm0,0" transform="translate(-70.42 -87.199)" fill="#f16700"/>
  <path id="Path_6281" data-name="Path 6281" d="M166.422,181.884a.942.942,0,1,1,.942-.942A.943.943,0,0,1,166.422,181.884Zm0,0" transform="translate(-158.489 -174.379)" fill="#f16700"/>
  <path id="Path_6282" data-name="Path 6282" d="M11.7,15.529h0a.468.468,0,0,1-.467.469H6.566A.468.468,0,0,1,6.1,15.53a1.4,1.4,0,0,0-1.4-1.406H2.833a.467.467,0,0,1-.466-.469V11.249a1.405,1.405,0,0,0-1.4-1.406.469.469,0,0,1-.387-.73C.6,9.089,2.047,6.918,2.43,6.345c0-.65,0-1.006,0-1.006a.478.478,0,0,1,0-.06A6.062,6.062,0,1,1,13.491,9.459a11.123,11.123,0,0,0-1.791,6.07ZM7.831.971a5.16,5.16,0,0,0-4.468,4.4c0,.108,0,.5,0,1.117a.47.47,0,0,1-.078.26c-.12.181-1,1.5-1.533,2.294a2.349,2.349,0,0,1,1.5,1.739H4.7a.469.469,0,0,1,0,.937H3.3v1.469H4.7a2.34,2.34,0,0,1,2.286,1.875h3.789a12.051,12.051,0,0,1,1.937-6.121A5.16,5.16,0,0,0,7.831.971Zm0,0" transform="translate(-0.5 0.001)" fill="#f16700"/>
</svg>
