<svg xmlns="http://www.w3.org/2000/svg" width="76.379" height="76.378" viewBox="0 0 76.379 76.378">
  <g id="Group_9211" data-name="Group 9211" transform="translate(15932.401 -2790)">
    <g id="g139" transform="translate(-15931.944 2814.976)">
      <path id="path141" d="M73.883,1.067H.033A1.034,1.034,0,0,1,.033-1H73.883a1.034,1.034,0,0,1,0,2.067Z" transform="translate(1 1)"/>
    </g>
    <path id="path143" d="M94.345-517.711H20.033A1.033,1.033,0,0,1,19-518.745V-583.96a1.033,1.033,0,0,1,1.034-1.033H94.345a1.033,1.033,0,0,1,1.034,1.033v65.215A1.033,1.033,0,0,1,94.345-517.711Zm-73.278-2.067H93.312v-63.148H21.067Z" transform="translate(-15951.401 3384.09)"/>
    <g id="g145" transform="translate(-15916.983 2790.001)">
      <path id="path147" d="M.034-119.2A1.033,1.033,0,0,1-1-120.237v-11.254A5.511,5.511,0,0,1,4.505-137h.308a5.511,5.511,0,0,1,5.5,5.505v3.237a1.034,1.034,0,0,1-1.034,1.034,1.034,1.034,0,0,1-1.034-1.034v-3.237a3.442,3.442,0,0,0-3.438-3.438H4.505a3.442,3.442,0,0,0-3.438,3.438v11.254A1.034,1.034,0,0,1,.034-119.2Z" transform="translate(1 136.996)"/>
    </g>
    <g id="g149" transform="translate(-15898.482 2790)">
      <path id="path151" d="M.034-119.209A1.033,1.033,0,0,1-1-120.243V-131.5A5.511,5.511,0,0,1,4.505-137h.308a5.511,5.511,0,0,1,5.505,5.5v3.238a1.033,1.033,0,0,1-1.034,1.033,1.033,1.033,0,0,1-1.034-1.033V-131.5a3.442,3.442,0,0,0-3.438-3.438H4.505A3.442,3.442,0,0,0,1.067-131.5v11.255A1.034,1.034,0,0,1,.034-119.209Z" transform="translate(1 137.002)"/>
    </g>
    <g id="g153" transform="translate(-15879.981 2790)">
      <path id="path155" d="M.034-119.209A1.033,1.033,0,0,1-1-120.243V-131.5A5.511,5.511,0,0,1,4.505-137h.308a5.511,5.511,0,0,1,5.505,5.5v3.238a1.033,1.033,0,0,1-1.034,1.033,1.033,1.033,0,0,1-1.034-1.033V-131.5a3.442,3.442,0,0,0-3.438-3.438H4.505A3.442,3.442,0,0,0,1.067-131.5v11.255A1.034,1.034,0,0,1,.034-119.209Z" transform="translate(1 137.002)"/>
    </g>
    <g id="g157" transform="translate(-15910.668 2824.227)">
      <path id="path159" d="M-117.882-234.764a16.47,16.47,0,0,1-16.451-16.451,16.47,16.47,0,0,1,16.451-16.451,16.47,16.47,0,0,1,16.451,16.451A16.47,16.47,0,0,1-117.882-234.764Zm0-30.835a14.4,14.4,0,0,0-14.384,14.384,14.4,14.4,0,0,0,14.384,14.384A14.4,14.4,0,0,0-103.5-251.215,14.4,14.4,0,0,0-117.882-265.6Z" transform="translate(134.333 267.666)"/>
    </g>
    <g id="g161" transform="translate(-15895.251 2832.552)">
      <path id="path163" d="M4.659,12.784a1.03,1.03,0,0,1-.731-.3L-.7,7.856A1.034,1.034,0,0,1-1,7.126V.034a1.034,1.034,0,1,1,2.067,0V6.7L5.39,11.02a1.034,1.034,0,0,1-.731,1.764Z" transform="translate(1 1)"/>
    </g>
  </g>
</svg>
