<svg xmlns="http://www.w3.org/2000/svg" width="68.167" height="78.378" viewBox="0 0 68.167 78.378">
  <g id="Group_9210" data-name="Group 9210" transform="translate(15677.232 -2789)">
    <path id="Path_30085" data-name="Path 30085" d="M33.582,77.878a1,1,0,0,1-.463-.114,107.608,107.608,0,0,1-10.1-6.2,78.7,78.7,0,0,1-8.32-6.547,36.354,36.354,0,0,1-6.731-7.877A64.206,64.206,0,0,1,3.723,48.9a49.885,49.885,0,0,1-2.9-9.514C-.661,32-.891,23.053.1,11.23a1,1,0,0,1,1.038-.916l.071.005A21.124,21.124,0,0,0,7.273,8.3,19.449,19.449,0,0,0,16,.04a1,1,0,0,1,.888-.54c.159,0,.98.01,2.34.027,4.859.06,16.238.2,23.737.2,5.322,0,6.591-.073,6.874-.116A1.474,1.474,0,0,1,50.06-.4,1.449,1.449,0,0,1,51.33.353a19.633,19.633,0,0,0,8.65,8,20.575,20.575,0,0,0,5.944,1.973l.06-.007a1,1,0,0,1,1.08.913h0c.991,11.822.761,20.767-.725,28.152a49.885,49.885,0,0,1-2.9,9.514,64.207,64.207,0,0,1-4.24,8.243,36.354,36.354,0,0,1-6.731,7.876,78.7,78.7,0,0,1-8.32,6.547,107.608,107.608,0,0,1-10.1,6.2A1,1,0,0,1,33.582,77.878ZM2.026,12.216C.187,35.234,3.308,45.445,9.68,56.116c2.521,4.223,7.519,8.992,14.452,13.79a108.584,108.584,0,0,0,9.45,5.838,108.584,108.584,0,0,0,9.45-5.838c6.933-4.8,11.931-9.567,14.452-13.79,6.372-10.671,9.493-20.878,7.654-43.893a24.2,24.2,0,0,1-5.975-2.046,23.772,23.772,0,0,1-5.111-3.35,19.923,19.923,0,0,1-4.3-5.2c-.7.05-2.361.1-6.787.1-7.512,0-18.9-.142-23.762-.2l-1.722-.021a19.816,19.816,0,0,1-4.209,5.179,23.607,23.607,0,0,1-5.209,3.453A24.468,24.468,0,0,1,2.026,12.216Z" transform="translate(-15676.731 2789.5)"/>
    <path id="Ellipse_646" data-name="Ellipse 646" d="M19.083-1a20.078,20.078,0,0,1,14.2,34.285A20.083,20.083,0,1,1,11.266.579,19.959,19.959,0,0,1,19.083-1Zm0,38.167A18.083,18.083,0,1,0,1,19.083,18.1,18.1,0,0,0,19.083,37.167Z" transform="translate(-15661.852 2806.093)"/>
    <path id="Ellipse_647" data-name="Ellipse 647" d="M6.891-1A7.891,7.891,0,1,1-1,6.891,7.9,7.9,0,0,1,6.891-1Zm0,13.783A5.891,5.891,0,1,0,1,6.891,5.9,5.9,0,0,0,6.891,12.783Z" transform="translate(-15650.189 2818.815)"/>
    <path id="Path_30086" data-name="Path 30086" d="M43.205,49.691h-2c0-4.418-4.07-8.012-9.072-8.012-4.664,0-8.633,3.209-9.037,7.306l-1.99-.2a9.66,9.66,0,0,1,3.573-6.5,11.945,11.945,0,0,1,15.243.287A9.491,9.491,0,0,1,43.205,49.691Z" transform="translate(-15675.431 2791.918)"/>
  </g>
</svg>
