<svg xmlns="http://www.w3.org/2000/svg" xmlns:xlink="http://www.w3.org/1999/xlink" width="1366" height="476" viewBox="0 0 1366 476">
  <defs>
    <clipPath id="clip-path">
      <rect id="Rectangle_4697" data-name="Rectangle 4697" width="1366" height="476" transform="translate(-15942.65 -13103)" fill="#afafaf"/>
    </clipPath>
  </defs>
  <g id="Mask_Group_567" data-name="Mask Group 567" transform="translate(15942.65 13103)" clip-path="url(#clip-path)">
    <g id="Group_8526" data-name="Group 8526" transform="translate(-15942.65 -13194.522)">
      <path id="Path_23638" data-name="Path 23638" d="M1229.948,3215.395s-19.015-141.086-188.956-153.938-276.9-32.131-279.274-149.945S676.981,2565,429.549,2565" transform="translate(26.114 -2565)" fill="none" stroke="#c8c8c8" stroke-width="2" opacity="0.2"/>
      <path id="Path_23639" data-name="Path 23639" d="M1229.948,3215.395s-19.015-141.086-188.956-153.938-276.9-32.131-279.274-149.945S676.981,2565,429.549,2565" transform="translate(3.331 -2565)" fill="none" stroke="#c8c8c8" stroke-width="2" opacity="0.2"/>
      <path id="Path_23640" data-name="Path 23640" d="M1229.948,3215.395s-19.015-141.086-188.956-153.938-276.9-32.131-279.274-149.945S676.981,2565,429.549,2565" transform="translate(-19.452 -2565)" fill="none" stroke="#c8c8c8" stroke-width="2" opacity="0.2"/>
      <path id="Path_23641" data-name="Path 23641" d="M1229.948,3215.395s-19.015-141.086-188.956-153.938-276.9-32.131-279.274-149.945S676.981,2565,429.549,2565" transform="translate(-42.236 -2565)" fill="none" stroke="#c8c8c8" stroke-width="2" opacity="0.2"/>
      <path id="Path_23642" data-name="Path 23642" d="M1229.948,3215.395s-19.015-141.086-188.956-153.938-276.9-32.131-279.274-149.945S676.981,2565,429.549,2565" transform="translate(-65.019 -2565)" fill="none" stroke="#c8c8c8" stroke-width="2" opacity="0.2"/>
      <path id="Path_23643" data-name="Path 23643" d="M1229.948,3215.395s-19.015-141.086-188.956-153.938-276.9-32.131-279.274-149.945S676.981,2565,429.549,2565" transform="translate(-87.802 -2565)" fill="none" stroke="#c8c8c8" stroke-width="2" opacity="0.2"/>
      <path id="Path_23644" data-name="Path 23644" d="M1229.948,3215.395s-19.015-141.086-188.956-153.938-276.9-32.131-279.274-149.945S676.981,2565,429.549,2565" transform="translate(-110.585 -2565)" fill="none" stroke="#c8c8c8" stroke-width="2" opacity="0.2"/>
      <path id="Path_23645" data-name="Path 23645" d="M1229.948,3215.395s-19.015-141.086-188.956-153.938-276.9-32.131-279.274-149.945S676.981,2565,429.549,2565" transform="translate(-133.368 -2565)" fill="none" stroke="#c8c8c8" stroke-width="2" opacity="0.2"/>
      <path id="Path_23646" data-name="Path 23646" d="M1229.948,3215.395s-19.015-141.086-188.956-153.938-276.9-32.131-279.274-149.945S676.981,2565,429.549,2565" transform="translate(-156.151 -2565)" fill="none" stroke="#c8c8c8" stroke-width="2" opacity="0.2"/>
      <path id="Path_23647" data-name="Path 23647" d="M1229.948,3215.395s-19.015-141.086-188.956-153.938-276.9-32.131-279.274-149.945S676.981,2565,429.549,2565" transform="translate(-178.934 -2565)" fill="none" stroke="#c8c8c8" stroke-width="2" opacity="0.2"/>
      <path id="Path_23648" data-name="Path 23648" d="M1229.948,3215.395s-19.015-141.086-188.956-153.938-276.9-32.131-279.274-149.945S676.981,2565,429.549,2565" transform="translate(-201.717 -2565)" fill="none" stroke="#c8c8c8" stroke-width="2" opacity="0.2"/>
      <path id="Path_23649" data-name="Path 23649" d="M1229.948,3215.395s-19.015-141.086-188.956-153.938-276.9-32.131-279.274-149.945S676.981,2565,429.549,2565" transform="translate(-224.501 -2565)" fill="none" stroke="#c8c8c8" stroke-width="2" opacity="0.2"/>
      <path id="Path_23650" data-name="Path 23650" d="M1229.948,3215.395s-19.015-141.086-188.956-153.938-276.9-32.131-279.274-149.945S676.981,2565,429.549,2565" transform="translate(-247.284 -2565)" fill="none" stroke="#c8c8c8" stroke-width="2" opacity="0.2"/>
      <path id="Path_23651" data-name="Path 23651" d="M1229.948,3215.395s-19.015-141.086-188.956-153.938-276.9-32.131-279.274-149.945S676.981,2565,429.549,2565" transform="translate(-270.067 -2565)" fill="none" stroke="#c8c8c8" stroke-width="2" opacity="0.2"/>
      <path id="Path_23652" data-name="Path 23652" d="M1229.948,3215.395s-19.015-141.086-188.956-153.938-276.9-32.131-279.274-149.945S676.981,2565,429.549,2565" transform="translate(-292.85 -2565)" fill="none" stroke="#c8c8c8" stroke-width="2" opacity="0.2"/>
      <path id="Path_23653" data-name="Path 23653" d="M1229.948,3215.395s-19.015-141.086-188.956-153.938-276.9-32.131-279.274-149.945S676.981,2565,429.549,2565" transform="translate(-315.633 -2565)" fill="none" stroke="#c8c8c8" stroke-width="2" opacity="0.2"/>
      <path id="Path_23654" data-name="Path 23654" d="M1229.948,3215.395s-19.015-141.086-188.956-153.938-276.9-32.131-279.274-149.945S676.981,2565,429.549,2565" transform="translate(-338.416 -2565)" fill="none" stroke="#c8c8c8" stroke-width="2" opacity="0.2"/>
      <path id="Path_23655" data-name="Path 23655" d="M1229.948,3215.395s-19.015-141.086-188.956-153.938-276.9-32.131-279.274-149.945S676.981,2565,429.549,2565" transform="translate(-361.199 -2565)" fill="none" stroke="#c8c8c8" stroke-width="2" opacity="0.2"/>
      <path id="Path_23656" data-name="Path 23656" d="M1229.948,3215.395s-19.015-141.086-188.956-153.938-276.9-32.131-279.274-149.945S676.981,2565,429.549,2565" transform="translate(-383.982 -2565)" fill="none" stroke="#c8c8c8" stroke-width="2" opacity="0.2"/>
      <path id="Path_23657" data-name="Path 23657" d="M1229.948,3215.395s-19.015-141.086-188.956-153.938-276.9-32.131-279.274-149.945S676.981,2565,429.549,2565" transform="translate(-406.766 -2565)" fill="none" stroke="#c8c8c8" stroke-width="2" opacity="0.2"/>
      <path id="Path_23658" data-name="Path 23658" d="M1229.948,3215.395s-19.015-141.086-188.956-153.938-276.9-32.131-279.274-149.945S676.981,2565,429.549,2565" transform="translate(-429.549 -2565)" fill="none" stroke="#c8c8c8" stroke-width="2" opacity="0.2"/>
    </g>
  </g>
</svg>
