<svg id="statistics_1_" data-name="statistics (1)" xmlns="http://www.w3.org/2000/svg" width="16" height="16" viewBox="0 0 16 16">
  <path id="Path_6298" data-name="Path 6298" d="M32.411,7.316a1.427,1.427,0,0,0,.979-.385l1.384.673a1.33,1.33,0,0,0-.011.169,1.412,1.412,0,0,0,2.822,0,1.333,1.333,0,0,0-.138-.591l1.882-1.829a1.436,1.436,0,0,0,.608.134,1.393,1.393,0,0,0,1.411-1.372,1.331,1.331,0,0,0-.065-.41l1.635-1.192a1.431,1.431,0,0,0,.782.23A1.393,1.393,0,0,0,45.11,1.372a1.412,1.412,0,0,0-2.822,0,1.331,1.331,0,0,0,.065.41L40.718,2.974a1.431,1.431,0,0,0-.782-.23,1.393,1.393,0,0,0-1.411,1.372,1.333,1.333,0,0,0,.138.591L36.782,6.536a1.44,1.44,0,0,0-1.587.251l-1.384-.673a1.33,1.33,0,0,0,.011-.169,1.412,1.412,0,1,0-1.411,1.372ZM43.7.915a.465.465,0,0,1,.47.457.471.471,0,0,1-.941,0A.465.465,0,0,1,43.7.915ZM39.936,3.658a.457.457,0,1,1-.47.457A.465.465,0,0,1,39.936,3.658ZM36.174,7.316a.457.457,0,1,1-.47.457A.465.465,0,0,1,36.174,7.316ZM32.411,5.487a.457.457,0,1,1-.47.457A.465.465,0,0,1,32.411,5.487Zm0,0" transform="translate(-30.055 0)" fill="#f16700"/>
  <path id="Path_6299" data-name="Path 6299" d="M15.531,160.48h-.5V150.474a.471.471,0,0,0-.469-.474H12.687a.471.471,0,0,0-.469.474V160.48h-.938v-7.166a.471.471,0,0,0-.469-.474H8.937a.471.471,0,0,0-.469.474v7.166H7.531V157.1a.471.471,0,0,0-.469-.473H5.187a.471.471,0,0,0-.469.473v3.378H3.781v-5.272a.471.471,0,0,0-.469-.474H1.437a.471.471,0,0,0-.469.474v5.272h-.5a.474.474,0,0,0,0,.947H15.531a.474.474,0,0,0,0-.947Zm-2.375-9.533h.937v9.533h-.937Zm-3.75,2.841h.938v6.692H9.406Zm-3.75,3.788h.938v2.9H5.656Zm-3.75-1.894h.937v4.8H1.906Zm0,0" transform="translate(0 -145.427)" fill="#f16700"/>
</svg>
