<svg xmlns="http://www.w3.org/2000/svg" width="59.832" height="56" viewBox="0 0 59.832 56">
  <path id="Union_65" data-name="Union 65" d="M7.285,56a.967.967,0,0,1-.729-1.607c.15-.173,3.64-4.3.132-9.808C.518,43.837,0,39.493,0,38.076c0-3.29,2.961-6.62,8.619-6.62H25.7a8.122,8.122,0,0,1-5.049-4.677c-.258.021-.663.046-1.158.046-1.987,0-4.714-.377-6.424-2.173A5.736,5.736,0,0,1,11.6,20.208c.215-4.075,3.06-6.413,7.8-6.413h0c.162,0,.316,0,.459.008V11.412a.97.97,0,0,1,.971-.968H46.242a.97.97,0,0,1,.971.968V22.1c0,4.75-2.105,7.848-6.4,9.354h11.73a.967.967,0,0,1,.8,1.51c-3.437,5.058-.917,9.015-.228,9.931,4.412.658,6.709,3.586,6.709,6.483,0,1.553-.622,6.62-8.619,6.62Zm1.759-1.935H51.213c4.305,0,6.676-1.664,6.676-4.685,0-2.256-2.089-4.685-6.676-4.685H8.984A10.038,10.038,0,0,1,9.044,54.065Zm-7.1-15.989c0,3.021,2.371,4.685,6.676,4.685H50.788a10.038,10.038,0,0,1,.06-9.369H8.619C4.032,33.391,1.943,35.819,1.943,38.076ZM33.167,30.6c10.728,0,12.1-4.539,12.1-8.494V12.379H21.8V22.1C21.8,26.514,23.179,30.6,33.167,30.6ZM13.537,20.31a3.839,3.839,0,0,0,.938,3.011c1.3,1.366,3.7,1.57,5.015,1.57.132,0,.256,0,.371-.005V15.74c-.14-.006-.294-.01-.459-.01C16.836,15.73,13.737,16.525,13.537,20.31ZM34.581,6.374V.968a.971.971,0,0,1,1.943,0V6.374a.971.971,0,0,1-1.943,0Zm-5.1,0V3.179a.971.971,0,0,1,1.943,0V6.374a.971.971,0,0,1-1.943,0Z" fill="#2c2c2c"/>
</svg>
