<svg xmlns="http://www.w3.org/2000/svg" width="62.035" height="61.996" viewBox="0 0 62.035 61.996">
  <path id="Union_67" data-name="Union 67" d="M42.509,58.643a11.452,11.452,0,0,1-3.225-9.738L35.3,52.884a12.628,12.628,0,0,1-12.064,3.28l-5.6,5.6A.753.753,0,0,1,16.57,60.7l5.069-5.067A12.521,12.521,0,0,1,17.5,52.884L9.123,44.513a12.562,12.562,0,0,1-2.767-4.158L1.337,45.372A.753.753,0,0,1,.272,44.308l5.557-5.554a12.66,12.66,0,0,1-.393-3.142,12.5,12.5,0,0,1,3.691-8.9l3.991-3.986a11.53,11.53,0,0,1-9.571-3.031A11.353,11.353,0,0,1,.9,7.019a.753.753,0,0,1,1.227-.242l6.2,6.2a1.76,1.76,0,0,0,2.485,0L12.987,10.8a1.756,1.756,0,0,0,0-2.484l-6.2-6.2A.753.753,0,0,1,7.028.893,11.429,11.429,0,0,1,22.3,15.009l2.062,2.061,3.386-3.385a4.7,4.7,0,0,1,7.918,4.308,4.7,4.7,0,0,1,5.578,5.576,4.744,4.744,0,0,1,.987-.1,4.7,4.7,0,0,1,3.323,8.018l-.352.352a4.7,4.7,0,0,1,3.625,7.45A11.5,11.5,0,0,1,58.489,42.3a11.352,11.352,0,0,1,2.647,12.676.753.753,0,0,1-1.227.242l-6.2-6.2a1.76,1.76,0,0,0-2.485,0l-2.174,2.173a1.756,1.756,0,0,0,0,2.484l6.2,6.2a.753.753,0,0,1-.242,1.227,11.4,11.4,0,0,1-12.5-2.46Zm-1.2-11.587A9.924,9.924,0,0,0,53.341,60.1l-5.357-5.355a3.261,3.261,0,0,1,0-4.613l2.174-2.173a3.268,3.268,0,0,1,4.615,0l5.358,5.355a9.849,9.849,0,0,0-2.683-9.922,10,10,0,0,0-10.365-2.1.753.753,0,0,1-.225.047l-4.095,4.093-1.408,1.407A.752.752,0,0,1,41.308,47.056Zm-24.586-25.8-6.531,6.522a11.077,11.077,0,0,0,0,15.673l8.375,8.371a11.1,11.1,0,0,0,15.676,0L39.26,46.8a4.7,4.7,0,0,1-4.519-4.694,4.739,4.739,0,0,1,.1-.983,4.743,4.743,0,0,1-.984.1,4.7,4.7,0,0,1-4.2-6.8,7.373,7.373,0,0,1-4.28-.466,8.664,8.664,0,0,1-2.146,8.679l-2.178,2.177a.753.753,0,0,1-1.065-1.065l2.178-2.177a7.134,7.134,0,0,0,0-10.091l-.841-.841a.753.753,0,0,1,1.065-1.065l1.771,1.77a5.832,5.832,0,0,0,8.222.014l.411-.411-5.021-5.019-.027-.026-.026-.027L23.1,21.255a4.5,4.5,0,0,0-.778-.622.749.749,0,0,1-.244-.144,4.52,4.52,0,0,0-5.352.765ZM36.248,42.106a3.193,3.193,0,0,0,5.45,2.257l4.292-4.29a.758.758,0,0,1,.319-.319l.969-.969a3.192,3.192,0,0,0-4.515-4.513l-5.58,5.578h0A3.17,3.17,0,0,0,36.248,42.106ZM31.6,34.272a3.192,3.192,0,0,0,4.5,4.524l.01-.01L40.3,34.6l4.185-4.183A3.192,3.192,0,0,0,39.973,25.9h0l-4.185,4.183Zm2.258-4.386,5.048-5.046.01-.01a3.192,3.192,0,0,0-4.525-4.5h0l-.328.328-4.719,4.717Zm-9.7-9.7,4.119,4.118,2.258-2.257,2.789-2.788.01-.01a3.192,3.192,0,0,0-4.525-4.5l-5.066,5.064Q23.961,19.99,24.161,20.19ZM4.588,18.606a10,10,0,0,0,10.365,2.1.753.753,0,0,1,.231-.047l.474-.473a6.027,6.027,0,0,1,6.784-1.2l.855-.855-2.4-2.4a.753.753,0,0,1-.172-.8A9.924,9.924,0,0,0,8.695,1.9l5.357,5.355a3.261,3.261,0,0,1,0,4.613L11.878,14.04a3.268,3.268,0,0,1-4.615,0L1.905,8.685A9.849,9.849,0,0,0,4.588,18.606Z" transform="translate(0 0)"/>
</svg>
